<svg width="84" height="84" viewBox="0 0 84 84" xmlns="http://www.w3.org/2000/svg" xmlns:xlink="http://www.w3.org/1999/xlink"><title>pt_BR</title><defs><circle id="a" cx="21" cy="21" r="21"/></defs><g fill="none" fill-rule="evenodd"><path fill="#27AE60" d="M0 0h84v84H0z"/><path fill="#FED225" d="M42 2.625L2.625 42 42 81.375 81.375 42z"/><g transform="translate(21 21)"><mask id="b" fill="#fff"><use xlink:href="#a"/></mask><use fill="#0065BD" xlink:href="#a"/><path d="M0 15.094c14.438-3.281 32.813-1.313 44.625 8.531" stroke="#FFF" stroke-width="3.938" mask="url(#b)"/><path d="M2.1 2.925l-.353.493-.06-.604-.552.251.25-.553-.603-.059.493-.353-.493-.353.604-.06-.251-.552.553.25.059-.603.353.493.353-.493.06.604.552-.251-.25.553.603.059-.493.353.493.353-.604.06.251.552-.553-.25-.059.603z" transform="translate(5.25 17.063)" mask="url(#b)" fill="#FFF"/><path d="M2.1 2.925l-.353.493-.06-.604-.552.251.25-.553-.603-.059.493-.353-.493-.353.604-.06-.251-.552.553.25.059-.603.353.493.353-.493.06.604.552-.251-.25.553.603.059-.493.353.493.353-.604.06.251.552-.553-.25-.059.603z" transform="translate(3.938 28.875)" mask="url(#b)" fill="#FFF"/><path d="M2.1 2.925l-.353.493-.06-.604-.552.251.25-.553-.603-.059.493-.353-.493-.353.604-.06-.251-.552.553.25.059-.603.353.493.353-.493.06.604.552-.251-.25.553.603.059-.493.353.493.353-.604.06.251.552-.553-.25-.059.603z" transform="translate(7.875 24.938)" mask="url(#b)" fill="#FFF"/><path d="M2.1 2.925l-.353.493-.06-.604-.552.251.25-.553-.603-.059.493-.353-.493-.353.604-.06-.251-.552.553.25.059-.603.353.493.353-.493.06.604.552-.251-.25.553.603.059-.493.353.493.353-.604.06.251.552-.553-.25-.059.603z" transform="translate(14.438 30.188)" mask="url(#b)" fill="#FFF"/><path d="M2.1 2.925l-.353.493-.06-.604-.552.251.25-.553-.603-.059.493-.353-.493-.353.604-.06-.251-.552.553.25.059-.603.353.493.353-.493.06.604.552-.251-.25.553.603.059-.493.353.493.353-.604.06.251.552-.553-.25-.059.603z" transform="translate(19.688 35.438)" mask="url(#b)" fill="#FFF"/><path d="M2.1 2.925l-.353.493-.06-.604-.552.251.25-.553-.603-.059.493-.353-.493-.353.604-.06-.251-.552.553.25.059-.603.353.493.353-.493.06.604.552-.251-.25.553.603.059-.493.353.493.353-.604.06.251.552-.553-.25-.059.603z" transform="translate(31.5 30.188)" mask="url(#b)" fill="#FFF"/><path d="M2.1 2.925l-.353.493-.06-.604-.552.251.25-.553-.603-.059.493-.353-.493-.353.604-.06-.251-.552.553.25.059-.603.353.493.353-.493.06.604.552-.251-.25.553.603.059-.493.353.493.353-.604.06.251.552-.553-.25-.059.603z" transform="translate(34.125 26.25)" mask="url(#b)" fill="#FFF"/><path d="M2.1 2.925l-.353.493-.06-.604-.552.251.25-.553-.603-.059.493-.353-.493-.353.604-.06-.251-.552.553.25.059-.603.353.493.353-.493.06.604.552-.251-.25.553.603.059-.493.353.493.353-.604.06.251.552-.553-.25-.059.603z" transform="translate(26.25 26.25)" mask="url(#b)" fill="#FFF"/><path d="M2.1 2.925l-.353.493-.06-.604-.552.251.25-.553-.603-.059.493-.353-.493-.353.604-.06-.251-.552.553.25.059-.603.353.493.353-.493.06.604.552-.251-.25.553.603.059-.493.353.493.353-.604.06.251.552-.553-.25-.059.603z" transform="translate(34.125 21)" mask="url(#b)" fill="#FFF"/><path d="M2.1 2.925l-.353.493-.06-.604-.552.251.25-.553-.603-.059.493-.353-.493-.353.604-.06-.251-.552.553.25.059-.603.353.493.353-.493.06.604.552-.251-.25.553.603.059-.493.353.493.353-.604.06.251.552-.553-.25-.059.603z" transform="translate(19.688 21)" mask="url(#b)" fill="#FFF"/><path d="M2.1 2.925l-.353.493-.06-.604-.552.251.25-.553-.603-.059.493-.353-.493-.353.604-.06-.251-.552.553.25.059-.603.353.493.353-.493.06.604.552-.251-.25.553.603.059-.493.353.493.353-.604.06.251.552-.553-.25-.059.603z" transform="translate(26.25 9.188)" mask="url(#b)" fill="#FFF"/><path d="M.8 1.253l-.194.271-.033-.332-.303.138.138-.303L.076.994.346.8.077.606.408.573.27.27l.303.138.033-.332.194.27.194-.27.033.332L1.33.27l-.138.303.332.033-.27.194.27.194-.332.033.138.303-.303-.138-.033.332z" transform="translate(14.438 34.125)" mask="url(#b)" fill="#FFF"/><path d="M.8 1.253l-.194.271-.033-.332-.303.138.138-.303L.076.994.346.8.077.606.408.573.27.27l.303.138.033-.332.194.27.194-.27.033.332L1.33.27l-.138.303.332.033-.27.194.27.194-.332.033.138.303-.303-.138-.033.332z" transform="translate(18.375 24.938)" mask="url(#b)" fill="#FFF"/><path d="M.8 1.253l-.194.271-.033-.332-.303.138.138-.303L.076.994.346.8.077.606.408.573.27.27l.303.138.033-.332.194.27.194-.27.033.332L1.33.27l-.138.303.332.033-.27.194.27.194-.332.033.138.303-.303-.138-.033.332z" transform="translate(21 26.25)" mask="url(#b)" fill="#FFF"/><path d="M.8 1.253l-.194.271-.033-.332-.303.138.138-.303L.076.994.346.8.077.606.408.573.27.27l.303.138.033-.332.194.27.194-.27.033.332L1.33.27l-.138.303.332.033-.27.194.27.194-.332.033.138.303-.303-.138-.033.332z" transform="translate(27.563 18.375)" mask="url(#b)" fill="#FFF"/><path d="M.8 1.253l-.194.271-.033-.332-.303.138.138-.303L.076.994.346.8.077.606.408.573.27.27l.303.138.033-.332.194.27.194-.27.033.332L1.33.27l-.138.303.332.033-.27.194.27.194-.332.033.138.303-.303-.138-.033.332z" transform="translate(31.5 35.438)" mask="url(#b)" fill="#FFF"/><path d="M.8 1.253l-.194.271-.033-.332-.303.138.138-.303L.076.994.346.8.077.606.408.573.27.27l.303.138.033-.332.194.27.194-.27.033.332L1.33.27l-.138.303.332.033-.27.194.27.194-.332.033.138.303-.303-.138-.033.332z" transform="translate(30.188 34.125)" mask="url(#b)" fill="#FFF"/><path d="M.8 1.253l-.194.271-.033-.332-.303.138.138-.303L.076.994.346.8.077.606.408.573.27.27l.303.138.033-.332.194.27.194-.27.033.332L1.33.27l-.138.303.332.033-.27.194.27.194-.332.033.138.303-.303-.138-.033.332z" transform="translate(38.063 24.938)" mask="url(#b)" fill="#FFF"/><path d="M.8 1.253l-.194.271-.033-.332-.303.138.138-.303L.076.994.346.8.077.606.408.573.27.27l.303.138.033-.332.194.27.194-.27.033.332L1.33.27l-.138.303.332.033-.27.194.27.194-.332.033.138.303-.303-.138-.033.332z" transform="translate(35.438 30.188)" mask="url(#b)" fill="#FFF"/><path d="M.8 1.253l-.194.271-.033-.332-.303.138.138-.303L.076.994.346.8.077.606.408.573.27.27l.303.138.033-.332.194.27.194-.27.033.332L1.33.27l-.138.303.332.033-.27.194.27.194-.332.033.138.303-.303-.138-.033.332z" transform="translate(28.875 31.5)" mask="url(#b)" fill="#FFF"/><path d="M.8 1.253l-.194.271-.033-.332-.303.138.138-.303L.076.994.346.8.077.606.408.573.27.27l.303.138.033-.332.194.27.194-.27.033.332L1.33.27l-.138.303.332.033-.27.194.27.194-.332.033.138.303-.303-.138-.033.332z" transform="translate(30.188 27.563)" mask="url(#b)" fill="#FFF"/></g></g></svg>