<svg width="84" height="84" viewBox="0 0 84 84" xmlns="http://www.w3.org/2000/svg" xmlns:xlink="http://www.w3.org/1999/xlink"><title>pt</title><defs><path d="M.003 16.016c0 3.287 1.459 6.26 3.822 8.433A13.497 13.497 0 0 0 12.98 28c3.587 0 6.842-1.344 9.2-3.513 2.358-2.169 3.82-5.162 3.82-8.46V.028L0 0l.003 16.016z" id="a"/><mask id="b" x="0" y="0" width="26" height="28" fill="#fff"><use xlink:href="#a"/></mask></defs><g fill="none" fill-rule="evenodd"><path fill="#D0011B" d="M0 0h84v84H0z"/><path fill="#27AE60" d="M0 0h42v84H0z"/><path d="M58.03 55.218c-6.19-.186-34.571-17.913-34.766-20.736l1.567-2.615c2.815 4.093 31.83 21.333 34.68 20.722l-1.481 2.628" fill="#FFCF0F"/><path d="M58.175 55.3c-.105.19-.3.197-.672.156-2.315-.256-9.34-3.675-17.653-8.653-9.672-5.794-17.66-11.072-16.794-12.452l.236-.417.047.014c-.78 2.338 15.764 11.804 16.738 12.407 9.573 5.934 17.643 9.4 18.358 8.499l-.26.447zM24.501 31.512c-.555 1.495 7.407 6.42 16.985 12.25 9.579 5.828 17.838 9.43 18.45 8.914.038-.067.301-.52.277-.517-.114.173-.394.227-.83.102-2.587-.747-9.337-3.847-17.696-8.919-8.358-5.072-15.63-9.746-16.761-11.732a1.204 1.204 0 0 1-.123-.584h-.028l-.24.42-.033.066z" stroke="#F39C12" stroke-width=".573" stroke-linecap="round" stroke-linejoin="round"/><path d="M42.035 36.192c6.195-.049 13.84-.847 18.239-2.601l-.948-1.541c-2.6 1.44-10.287 2.387-17.343 2.528-8.346-.076-14.238-.854-17.19-2.836l-.894 1.641c5.426 2.298 10.986 2.786 18.136 2.81" fill="#FFCF0F"/><path d="M59.697 32.063c-.47.377-2.81 1.208-6.928 1.866-2.749.394-6.243.747-10.708.751-4.242.004-7.708-.282-10.344-.666-4.182-.546-6.408-1.532-7.21-1.82.08-.138.16-.275.244-.412.625.314 2.773 1.187 7.012 1.788 2.606.37 6.077.645 10.298.64a73.568 73.568 0 0 0 10.63-.756c4.14-.57 6.367-1.629 6.705-1.894l.302.503zm.832 1.563c-.151.242-3.02 1.232-7.247 1.963-2.866.437-6.604.81-11.27.815-4.431.004-8.052-.312-10.793-.683-4.437-.696-6.727-1.665-7.573-2.007.08-.161.133-.274.21-.425 2.438.971 4.738 1.557 7.434 1.972 2.723.369 6.3.689 10.71.685a75.196 75.196 0 0 0 11.19-.831c4.334-.7 6.701-1.6 7.034-2.018l.306.529z" stroke="#F39C12" stroke-width=".573" stroke-linecap="round" stroke-linejoin="round"/><path d="M21.692 43.66c3.81 2.051 12.274 3.084 20.282 3.155 7.292.012 16.792-1.127 20.344-3.011l-.098-2.052c-1.111 1.737-11.291 3.404-20.325 3.336-9.034-.068-17.422-1.464-20.219-3.271l.016 1.843" fill="#FFCF0F"/><path d="M62.514 41.624v.49c-.533.638-3.88 1.603-8.08 2.283-3.194.49-7.36.86-12.55.86-4.932 0-8.864-.351-11.914-.82-4.82-.702-7.904-1.932-8.523-2.3l.003-.57c1.86 1.236 6.896 2.141 8.588 2.418 3.03.466 6.939.815 11.845.815 5.167 0 9.309-.367 12.484-.855 3.012-.435 7.303-1.567 8.147-2.321zm-.002 1.741v.49c-.533.638-3.881 1.604-8.08 2.284-3.194.49-7.36.86-12.55.86-4.932 0-8.864-.352-11.914-.82-4.82-.703-7.904-1.933-8.523-2.3l.003-.571c1.86 1.237 6.896 2.141 8.588 2.418 3.03.466 6.939.815 11.845.815 5.167 0 9.309-.367 12.484-.854 3.012-.435 7.302-1.568 8.147-2.322z" stroke="#F39C12" stroke-width=".573" stroke-linecap="round" stroke-linejoin="round"/><path d="M41.957 54.866c-8.763-.053-16.272-2.39-17.857-2.777l1.156 1.811c2.8 1.18 10.126 2.936 16.785 2.741 6.66-.194 12.48-.71 16.58-2.708l1.186-1.877c-2.795 1.317-12.307 2.796-17.85 2.81" fill="#FFCF0F"/><path d="M60.094 51.816l.014.016c-.13.22-.265.444-.402.669-1.032.369-3.832 1.189-7.92 1.76-2.695.368-4.37.724-9.728.828-10.042-.256-16.544-2.22-18.089-2.705l-.228-.44c5.82 1.52 11.764 2.582 18.317 2.69 4.903-.104 6.99-.466 9.66-.83 4.768-.742 7.17-1.527 7.892-1.754a.591.591 0 0 0-.032-.041l.517-.193zm-1.028 1.697c-.174.266-.351.529-.532.785-1.934.682-4.982 1.399-6.268 1.608-2.628.541-6.692.941-10.3.943-7.763-.114-14.117-1.634-17.107-2.931l-.241-.415.04-.062.409.158c5.316 1.903 11.286 2.663 16.943 2.799 3.593.013 7.19-.412 10.098-.933 4.46-.894 6.264-1.568 6.818-1.873l.14-.08z" stroke="#F39C12" stroke-width=".55" stroke-linecap="round" stroke-linejoin="round"/><path d="M41.927 22.29c11.163 0 20.343 9.09 20.343 20.235 0 11.144-9.18 20.234-20.343 20.234S21.66 53.67 21.66 42.525c0-11.145 9.104-20.234 20.267-20.234M60.2 42.04c.029 5.768-2.921 10.944-5.297 13.227-3.362 3.231-7.82 5.31-13.024 5.405-5.813.107-11.293-3.685-12.763-5.35-2.874-3.257-5.214-7.392-5.29-12.965.357-6.296 2.827-10.68 6.407-13.688 3.58-3.007 8.347-4.472 12.317-4.367 4.581.121 9.932 2.37 13.63 6.833 2.421 2.925 3.47 6.099 4.02 10.905" fill="#FFCF0F"/><path d="M22.143 42.521c0 10.918 8.96 19.853 19.839 19.853 10.878 0 19.839-8.935 19.839-19.853 0-10.919-8.961-19.853-19.84-19.853-10.878 0-19.838 8.935-19.838 19.853zm19.839-20.3c11.172 0 20.285 9.12 20.285 20.3 0 11.18-9.113 20.3-20.285 20.3-11.173 0-20.286-9.12-20.286-20.3 0-11.18 9.113-20.3 20.286-20.3z" stroke="#F39C12" stroke-width=".573" stroke-linecap="round" stroke-linejoin="round"/><path d="M23.863 42.503c0 9.98 8.191 18.147 18.135 18.147s18.135-8.167 18.135-18.147c0-9.98-8.19-18.148-18.135-18.148-9.944 0-18.135 8.167-18.135 18.148zm18.135-18.594c10.189 0 18.581 8.368 18.581 18.594s-8.392 18.594-18.581 18.594-18.581-8.368-18.581-18.594 8.393-18.594 18.581-18.594z" stroke="#F39C12" stroke-width=".573" stroke-linecap="round" stroke-linejoin="round"/><path fill="#FFCF0F" d="M42.815 22.14h-1.738l.002 40.786h1.744z"/><path d="M40.916 21.907h.446v41.257h-.446V21.907zm1.725 0h.443l.004 41.256h-.443l-.004-41.256z" stroke="#F39C12" stroke-width=".573" stroke-linecap="round" stroke-linejoin="round"/><path fill="#FFCF0F" d="M62.28 43.307v-1.508l-1.226-1.144-6.966-1.845-10.04-1.025-12.087.615-8.605 2.05-1.737 1.287v1.508l4.4-1.975 10.45-1.64h10.038l7.376.82 5.122 1.23z"/><path stroke="#F39C12" stroke-width=".573" stroke-linecap="round" stroke-linejoin="round" d="M62.28 43.307v-1.508l-1.226-1.144-6.966-1.845-10.04-1.025-12.087.615-8.605 2.05-1.737 1.287v1.508l4.4-1.975 10.45-1.64h10.038l7.376.82 5.122 1.23z"/><path d="M41.893 28.757c7.55-.038 14.135 1.056 17.148 2.6l1.099 1.902c-2.619-1.412-9.723-2.88-18.235-2.66-6.936.042-14.347.764-18.066 2.749l1.312-2.196c3.052-1.583 10.248-2.386 16.743-2.395" fill="#FFCF0F"/><path d="M41.893 28.757c7.55-.038 14.135 1.056 17.148 2.6l1.099 1.902c-2.619-1.412-9.723-2.88-18.235-2.66-6.936.042-14.347.764-18.066 2.749l1.312-2.196c3.052-1.583 10.248-2.386 16.743-2.395" stroke="#F39C12" stroke-width=".573" stroke-linecap="round" stroke-linejoin="round"/><path d="M52.07 50.958c-3.733-.697-7.472-.798-10.084-.767-12.58.147-16.645 2.585-17.14 3.323l-.941-1.534c3.203-2.323 10.054-3.626 18.15-3.493 4.203.07 7.83.348 10.882.94l-.867 1.532" fill="#FFCF0F"/><path d="M52.07 50.958c-3.733-.697-7.472-.798-10.084-.767-12.58.147-16.645 2.585-17.14 3.323l-.941-1.534c3.203-2.323 10.054-3.626 18.15-3.493 4.203.07 7.83.348 10.882.94l-.867 1.532" stroke="#F39C12" stroke-width=".573" stroke-linecap="round" stroke-linejoin="round"/><path fill="#FFCF0F" d="M59.943 52.213l-1.512 2.347-4.343-3.86-11.268-7.585-12.703-6.97-6.595-2.257 1.406-2.608.477-.26 4.097 1.025 13.522 6.97 7.786 4.92 6.556 4.715 2.663 3.075z"/><path stroke="#F39C12" stroke-width=".573" stroke-linecap="round" stroke-linejoin="round" d="M59.943 52.213l-1.512 2.347-4.343-3.86-11.268-7.585-12.703-6.97-6.595-2.257 1.406-2.608.477-.26 4.097 1.025 13.522 6.97 7.786 4.92 6.556 4.715 2.663 3.075z"/><g transform="translate(29 29)"><path d="M5.002 16.012a9.16 9.16 0 0 0 2.5 6.324C9.05 23.97 11.153 25 13.486 25c2.345 0 4.474-1.008 6.015-2.635C21.044 20.74 22 18.494 22 16.02v-12L5 4l.002 12.012z" fill="#FFF"/><path d="M21 16.102c0 1.586-1.848 7.334-8 7.334-6.154 0-8-5.748-8-7.334V5h16v11.102zm-21-.007v.01c0 3.262 1.47 6.233 3.83 8.39C6.192 26.656 9.446 28 13.007 28c3.58 0 6.827-1.334 9.18-3.487C24.542 22.361 26 19.39 26 16.115V.004L.016 0 0 16.095z" fill="#D0011B"/><use stroke="#FFCF0F" mask="url(#b)" stroke-width="2" xlink:href="#a"/></g><path d="M41 31h2v2h-2zm10 0h2v2h-2zm0 11h2v2h-2zm-20 0h2v2h-2zm2 7h2v2h-2zm16 0h2v2h-2zM31 31h2v2h-2z" fill="#FFCF0F"/><g transform="translate(40 35)"><path d="M0 0v1.905C0 2.668.794 3.05 1.19 3.05c.397 0 1.191-.381 1.191-1.144V0H0z" fill="#039"/><ellipse fill="#FFF" cx=".893" cy=".915" rx=".298" ry=".305"/><ellipse fill="#FFF" cx="1.488" cy="2.134" rx=".298" ry=".305"/></g><g transform="translate(40 41)"><path d="M0 0v1.905C0 2.668.794 3.05 1.19 3.05c.397 0 1.191-.381 1.191-1.144V0H0z" fill="#039"/><ellipse fill="#FFF" cx=".893" cy=".915" rx=".298" ry=".305"/><ellipse fill="#FFF" cx="1.488" cy="2.134" rx=".298" ry=".305"/></g><g transform="translate(35 41)"><path d="M0 0v1.905C0 2.668.794 3.05 1.19 3.05c.397 0 1.191-.381 1.191-1.144V0H0z" fill="#039"/><ellipse fill="#FFF" cx=".893" cy=".915" rx=".298" ry=".305"/><ellipse fill="#FFF" cx="1.488" cy="2.134" rx=".298" ry=".305"/></g><g transform="translate(40 47)"><path d="M0 0v1.905C0 2.668.794 3.05 1.19 3.05c.397 0 1.191-.381 1.191-1.144V0H0z" fill="#039"/><ellipse fill="#FFF" cx=".893" cy=".915" rx=".298" ry=".305"/><ellipse fill="#FFF" cx="1.488" cy="2.134" rx=".298" ry=".305"/></g><g transform="translate(45 41)"><path d="M0 0v1.905C0 2.668.794 3.05 1.19 3.05c.397 0 1.191-.381 1.191-1.144V0H0z" fill="#039"/><ellipse fill="#FFF" cx=".893" cy=".915" rx=".298" ry=".305"/><ellipse fill="#FFF" cx="1.488" cy="2.134" rx=".298" ry=".305"/></g></g></svg>