<svg width="84" height="84" viewBox="0 0 84 84" xmlns="http://www.w3.org/2000/svg"><title>bs</title><g fill="none" fill-rule="evenodd"><path fill="#0065BD" d="M0 0h84v84H0z"/><path fill="#FFCF0F" d="M0 10l74 74V0H0z"/><path d="M61.031 85.332l-2.7 1.728.81-3.102-2.479-2.034 3.2-.189 1.17-2.985 1.168 2.985 3.2.19-2.478 2.033.81 3.102zm-7.875-7.875l-2.7 1.728.81-3.102-2.479-2.034 3.2-.189 1.17-2.985 1.168 2.985 3.2.19-2.478 2.033.81 3.102zm-7.875-7.875l-2.7 1.728.81-3.102-2.479-2.034 3.2-.189L45.283 63l1.168 2.985 3.2.19-2.478 2.033.81 3.102zm-7.875-7.875l-2.7 1.728.81-3.102-2.479-2.034 3.2-.189 1.17-2.985 1.168 2.985 3.2.19-2.478 2.033.81 3.102zm-7.875-7.875l-2.7 1.728.81-3.102-2.479-2.034 3.2-.189 1.17-2.985 1.168 2.985 3.2.19-2.478 2.033.81 3.102zm-7.875-7.875l-2.7 1.728.81-3.102-2.479-2.034 3.2-.189 1.17-2.985 1.168 2.985 3.2.19-2.478 2.033.81 3.102zm-7.875-7.875l-2.7 1.728.81-3.102-2.479-2.034 3.2-.189 1.17-2.985 1.168 2.985 3.2.19-2.478 2.033.81 3.102zm-7.875-7.875l-2.7 1.728.81-3.102-2.48-2.033 3.2-.189 1.17-2.985 1.168 2.985 3.2.19-2.478 2.033.81 3.102zm-7.875-7.875l-2.7 1.728.81-3.102-2.479-2.034 3.2-.189 1.17-2.985L-.8 18.735l3.2.19-2.478 2.033.81 3.102z" fill="#FEFEFE"/></g></svg>