<svg width="84" height="84" viewBox="0 0 84 84" xmlns="http://www.w3.org/2000/svg"><title>bs</title><g fill="none" fill-rule="evenodd"><path fill="#0065BD" d="M0 0h84v84H0z"/><path fill="#FFCF0F" d="M0 10l74 74V0H0z"/><path d="M61.031 85.332l-2.7 1.728.81-3.102-2.479-2.034 3.2-.189 1.17-2.985 1.168 2.985 3.2.19-2.478 2.033.81 3.102zM53.156 77.457l-2.7 1.728.81-3.102-2.479-2.034 3.2-.189 1.17-2.985 1.168 2.985 3.2.19-2.478 2.033.81 3.102zM45.281 69.582l-2.7 1.728.81-3.102-2.479-2.034 3.2-.189L45.283 63l1.168 2.985 3.2.19-2.478 2.033.81 3.102zM37.406 61.707l-2.7 1.728.81-3.102-2.479-2.034 3.2-.189 1.17-2.985 1.168 2.985 3.2.19-2.478 2.033.81 3.102zM29.531 53.832l-2.7 1.728.81-3.102-2.479-2.034 3.2-.189 1.17-2.985 1.168 2.985 3.2.19-2.478 2.033.81 3.102zM21.656 45.957l-2.7 1.728.81-3.102-2.479-2.034 3.2-.189 1.17-2.985 1.168 2.985 3.2.19-2.478 2.033.81 3.102zM13.781 38.082l-2.7 1.728.81-3.102-2.479-2.034 3.2-.189 1.17-2.985 1.168 2.985 3.2.19-2.478 2.033.81 3.102zM5.906 30.207l-2.7 1.728.81-3.102L1.536 26.8l3.2-.189 1.17-2.985 1.168 2.985 3.2.19-2.478 2.033.81 3.102zM-1.969 22.332l-2.7 1.728.81-3.102-2.479-2.034 3.2-.189 1.17-2.985L-.8 18.735l3.2.19-2.478 2.033.81 3.102z" fill="#FEFEFE"/></g></svg>