<svg width="84" height="84" viewBox="0 0 84 84" xmlns="http://www.w3.org/2000/svg"><title>en_AU</title><g fill="none" fill-rule="evenodd"><path fill="#0065BD" d="M0 0h84v84H0z"/><path d="M0 6l11 11h6v-6L6 0H0v6zm42 0L31 17h-6v-6L36 0h6v6zm0 30L31 25h-6v6l11 11h6v-6zM0 36l11-11h6v6L6 42H0v-6z" fill="#FEFEFE"/><path d="M0 4l16 16 3-2L1 0H0v4zm0 37l17-17 3 2L4 42H0v-1zm42-3L26 22l-3 2 18 18h1v-4zm0-37L25 18l-3-2L38 0h4v1z" fill="#D0011B"/><path d="M15 15V0h12v15h15v12H27v15H15V27H0V15h15z" fill="#FEFEFE"/><path d="M17 17V0h8v17h17v8H25v17h-8V25H0v-8h17z" fill="#D0011B"/><path fill="#FFF" d="M21 68.25l-4.556 4.21.451-6.187-6.132-.937 5.119-3.504-3.091-5.379 5.931 1.817L21 52.5l2.278 5.77 5.931-1.817-3.09 5.379 5.118 3.504-6.132.937.45 6.187zm41.344-50.86l-3.132 2.895.31-4.253-4.216-.644 3.519-2.41L56.7 9.28l4.078 1.25 1.566-3.967 1.566 3.966 4.078-1.249-2.125 3.698 3.519 2.41-4.216.644.31 4.253zm-10.5 21l-3.132 2.895.31-4.253-4.216-.644 3.519-2.41L46.2 30.28l4.078 1.25 1.566-3.968 1.566 3.967 4.078-1.249-2.125 3.698 3.519 2.41-4.216.644.31 4.253zm23.625-5.25l-3.132 2.895.31-4.253-4.216-.644 3.519-2.41-2.125-3.698 4.078 1.25 1.566-3.968 1.566 3.967 4.078-1.249-2.125 3.698 3.519 2.41-4.216.644.31 4.253zm-9.188 12.715l-2.7 1.83.907-3.133-2.576-2.003 3.26-.106 1.11-3.068 1.108 3.068 3.26.106-2.575 2.003.906 3.133zm-4.593 24.364L58.84 72.85l.282-3.867-3.832-.585 3.199-2.19-1.932-3.362 3.707 1.135 1.423-3.606 1.424 3.606 3.707-1.135-1.932 3.361 3.2 2.19-3.833.586.282 3.867z"/></g></svg>