<svg width="84" height="84" viewBox="0 0 84 84" xmlns="http://www.w3.org/2000/svg"><title>en_CA</title><g fill="none" fill-rule="evenodd"><path fill="#FFF" d="M0 0h84v84H0z"/><path fill="#D0011B" d="M0 0h14v84H0zM70 0h14v84H70z"/><path d="M41.94 21l-4.008 7.284c-.454.791-1.269.718-2.083.276l-2.901-1.464 2.162 11.187c.455 2.044-1.004 2.044-1.724 1.16l-5.062-5.523-.822 2.805c-.095.368-.512.755-1.137.663l-6.401-1.312 1.681 5.958c.36 1.326.64 1.874-.363 2.224L19 45.303l11.02 8.724c.436.33.656.924.5 1.461l-.964 3.085c3.795-.426 7.194-1.067 10.99-1.462.335-.035.187 12.17.187 12.17h2.414s-.148-12.205.187-12.17c3.796.395 7.196 1.036 10.99 1.462l-.965-3.085c-.155-.537.065-1.13.501-1.46l11.02-8.725-2.282-1.045c-1.004-.35-.723-.898-.363-2.224l1.681-5.958-6.401 1.312c-.625.092-1.042-.295-1.137-.663l-.822-2.805-5.062 5.523c-.72.884-2.178.884-1.724-1.16l2.162-11.187-2.9 1.464c-.815.442-1.63.515-2.084-.276" fill="#D0021B"/></g></svg>