<svg width="84" height="84" viewBox="0 0 84 84" xmlns="http://www.w3.org/2000/svg"><title>en_GB</title><g fill="none" fill-rule="evenodd"><path fill="#0065BD" d="M0 0h84v84H0z"/><path d="M0 11.813l22.313 22.312h11.812V22.312L11.812 0H0v11.813zm84 0L61.687 34.124H49.876V22.312L72.188 0H84v11.813zm0 60.374L61.687 49.876H49.876v11.813L72.188 84H84V72.187zm-84 0l22.313-22.312h11.812v11.813L11.812 84H0V72.187z" fill="#FEFEFE"/><path d="M0 7.875l31.5 31.5 5.25-3.938L1.312 0H0v7.875zm0 74.813l34.125-34.126 5.25 3.938L7.875 84H0v-1.313zm84-6.563l-31.5-31.5-5.25 3.938L82.688 84H84v-7.875zm0-74.813L48.562 36.75l-5.25-3.938L76.126 0H84v1.313z" fill="#D0011B"/><path d="M28.875 28.875V0h26.25v28.875H84v26.25H55.125V84h-26.25V55.125H0v-26.25h28.875z" fill="#FEFEFE"/><path d="M34.125 34.125V0h15.75v34.125H84v15.75H49.875V84h-15.75V49.875H0v-15.75h34.125z" fill="#D0011B"/></g></svg>