<svg width="84" height="84" viewBox="0 0 84 84" xmlns="http://www.w3.org/2000/svg"><title>fa</title><g fill="none" fill-rule="evenodd"><path fill="#FFF" d="M0 0h84v84H0z"/><path d="M42.002 29.081a2.143 2.143 0 0 0 3.016.534A2.222 2.222 0 0 0 45.783 27c-.21 1.129-1.28 1.87-2.39 1.658a2.047 2.047 0 0 1-1.39-1v-.001h-.001a2.049 2.049 0 0 1-1.39 1.001c-1.112.213-2.182-.53-2.391-1.658a2.222 2.222 0 0 0 .765 2.615c.978.699 2.328.46 3.016-.534zm-1.186 25.811a13.407 13.407 0 0 1-7.036-.387 14.775 14.775 0 0 0 5.868-.907 13.802 13.802 0 0 1-6.662-8.02c-1.705-5.332-.093-11.182 4.088-14.838-4.543 6.833-2.906 16.065 3.611 20.872l-.454-11.389v-8.962a4.667 4.667 0 0 0 1.771-1.51 4.664 4.664 0 0 0 1.77 1.51v8.962l-.453 11.389c6.517-4.807 8.154-14.039 3.611-20.872 4.18 3.656 5.793 9.506 4.088 14.838a13.802 13.802 0 0 1-6.662 8.02 14.775 14.775 0 0 0 5.868.907 13.407 13.407 0 0 1-7.036.387l-.019.475L42.002 57l-1.167-1.633-.019-.475zm10.461-3.054c5.48-3.22 7.354-10.343 4.187-15.912a11.483 11.483 0 0 0-7.137-5.47c6.621 5.06 7.954 14.618 2.975 21.348l-.025.034zm-18.55 0c-5.48-3.22-7.354-10.343-4.187-15.912a11.482 11.482 0 0 1 7.137-5.47c-6.621 5.06-7.953 14.618-2.975 21.348l.025.034zM0 64h85v23H0z" fill="#D0011B"/><path fill="#FFF" d="M7 69h1v1H7z"/><path stroke="#FFF" d="M5.5 70v-2.5h4v2h4v-2H11M18 69.5h-2.5v-2h4M19.5 65v4.5h4V65M21.5 65v4.5M18 65.5H5"/><path fill="#FFF" d="M27 69h1v1h-1z"/><path stroke="#FFF" d="M25.5 70v-2.5h4v2h4v-2H31M38 69.5h-2.5v-2h4M39.5 65v4.5h4V65M41.5 65v4.5M38 65.5H25"/><path fill="#FFF" d="M47 69h1v1h-1z"/><path stroke="#FFF" d="M45.5 70v-2.5h4v2h4v-2H51M58 69.5h-2.5v-2h4M59.5 65v4.5h4V65M61.5 65v4.5M58 65.5H45"/><g><path fill="#FFF" d="M67 69h1v1h-1z"/><path stroke="#FFF" d="M65.5 70v-2.5h4v2h4v-2H71M78 69.5h-2.5v-2h4M79.5 65v4.5h4V65M81.5 65v4.5M78 65.5H65"/></g><g stroke="#FFF"><path d="M-.5 65v4.5h4V65M1.5 65v4.5"/></g><path fill="#D0011B" d="M64 63h1v2h-1zM74 63h1v2h-1zM54 63h1v2h-1zM44 63h1v2h-1zM34 63h1v2h-1zM24 63h1v2h-1zM14 63h1v2h-1zM4 63h1v2H4z"/><g><path fill="#27AE60" d="M-3 0h87v20H-3z"/><path fill="#27AE60" d="M64 19h1v2h-1zM74 19h1v2h-1z"/><path fill="#FFF" d="M7 18h1v1H7z"/><path stroke="#FFF" d="M5.5 19v-2.5h4v2h4v-2H11M18 18.5h-2.5v-2h4M19.5 14v4.5h4V14M21.5 14v4.5M18 14.5H5"/><path fill="#FFF" d="M27 18h1v1h-1z"/><path stroke="#FFF" d="M25.5 19v-2.5h4v2h4v-2H31M38 18.5h-2.5v-2h4M39.5 14v4.5h4V14M41.5 14v4.5M38 14.5H25"/><g><path fill="#FFF" d="M47 18h1v1h-1z"/><path stroke="#FFF" d="M45.5 19v-2.5h4v2h4v-2H51M58 18.5h-2.5v-2h4M59.5 14v4.5h4V14M61.5 14v4.5M58 14.5H45"/></g><g><path fill="#FFF" d="M67 18h1v1h-1z"/><path stroke="#FFF" d="M65.5 19v-2.5h4v2h4v-2H71M78 18.5h-2.5v-2h4M79.5 14v4.5h4V14M81.5 14v4.5M78 14.5H65"/></g><g stroke="#FFF"><path d="M-.5 14v4.5h4V14M1.5 14v4.5"/></g><path fill="#27AE60" d="M54 19h1v2h-1zM44 19h1v2h-1zM34 19h1v2h-1zM4 19h1v2H4zM14 19h1v2h-1zM24 19h1v2h-1z"/></g></g></svg>