<svg width="84" height="84" viewBox="0 0 84 84" xmlns="http://www.w3.org/2000/svg"><title>fr_CA</title><g fill="none" fill-rule="evenodd"><path fill="#0065BD" d="M0 0h84v84H0z"/><path fill="#0065BD" d="M0 0h84v84H0z"/><path d="M72.525 23.421c.46-.717.421-2.287-.5-2.84-.705-.37-1.5-.225-1.873.092-.598.38-1.175 1.59-1.175 2.818l2.067-.003v2.416l-4.291-.003c.056 1.242.703 2.238 1.908 2.792-.155.523-.881 1.59-1.879 1.518-.197 1.13-.384 1.763-1.282 2.789-.898-1.026-1.084-1.66-1.282-2.79-.997.073-1.724-.994-1.88-1.517 1.206-.555 1.853-1.55 1.91-2.792l-4.292.003v-2.416l2.067.003c0-1.227-.576-2.439-1.175-2.818-.372-.317-1.168-.461-1.872-.093-.922.554-.962 2.124-.5 2.841-4.354-.846-3.922-5.244-2.44-6.841 1.2-1.29 2.506-1.492 3.514-1.085 2.29.859 3.83 3.72 3.904 7.996h1.198c0-3.886-.647-5.125-2.33-10.006-.848-2.307-.34-5.159 1.177-7.784C64.042 4.759 64.721 3.91 65.5 3c.78.91 1.458 1.76 2 2.7 1.518 2.626 2.027 5.478 1.18 7.785-1.686 4.88-2.332 6.12-2.332 10.006h1.198c.074-4.275 1.615-7.137 3.904-7.996 1.008-.406 2.316-.205 3.514 1.085 1.482 1.597 1.914 5.995-2.44 6.841m.001 48c.46-.717.421-2.287-.5-2.84-.705-.37-1.5-.225-1.873.092-.598.38-1.175 1.59-1.175 2.818l2.067-.003v2.415l-4.291-.002c.056 1.242.703 2.237 1.908 2.792-.155.523-.881 1.59-1.879 1.518-.197 1.13-.384 1.763-1.282 2.789-.898-1.026-1.084-1.66-1.282-2.79-.997.073-1.724-.994-1.88-1.517 1.206-.555 1.853-1.55 1.91-2.792l-4.292.002v-2.415l2.067.003c0-1.227-.576-2.439-1.175-2.818-.372-.317-1.168-.461-1.872-.093-.922.554-.962 2.124-.5 2.841-4.354-.846-3.922-5.244-2.44-6.841 1.2-1.29 2.506-1.492 3.514-1.085 2.29.859 3.83 3.72 3.904 7.996h1.198c0-3.886-.647-5.125-2.33-10.006-.848-2.307-.34-5.158 1.177-7.784.543-.942 1.222-1.791 2.001-2.701.78.91 1.458 1.76 2 2.7 1.518 2.627 2.027 5.478 1.18 7.785-1.686 4.88-2.332 6.12-2.332 10.006h1.198c.074-4.275 1.615-7.137 3.904-7.996 1.008-.406 2.316-.205 3.514 1.085 1.482 1.597 1.914 5.995-2.44 6.841m-47.999 0c.46-.717.421-2.287-.5-2.84-.705-.37-1.5-.225-1.873.092-.598.38-1.175 1.59-1.175 2.818l2.067-.003v2.415l-4.291-.002c.056 1.242.703 2.237 1.908 2.792-.155.523-.881 1.59-1.879 1.518-.197 1.13-.384 1.763-1.282 2.789-.898-1.026-1.084-1.66-1.282-2.79-.997.073-1.724-.994-1.88-1.517 1.206-.555 1.853-1.55 1.91-2.792l-4.292.002v-2.415l2.067.003c0-1.227-.576-2.439-1.175-2.818-.372-.317-1.168-.461-1.872-.093-.922.554-.962 2.124-.5 2.841-4.354-.846-3.922-5.244-2.44-6.841 1.2-1.29 2.506-1.492 3.514-1.085 2.29.859 3.83 3.72 3.904 7.996h1.198c0-3.886-.647-5.125-2.33-10.006-.848-2.307-.34-5.158 1.177-7.784.543-.942 1.222-1.791 2.001-2.701.78.91 1.458 1.76 2 2.7 1.518 2.627 2.027 5.478 1.18 7.785-1.686 4.88-2.332 6.12-2.332 10.006h1.198c.074-4.275 1.615-7.137 3.904-7.996 1.008-.406 2.316-.205 3.514 1.085 1.482 1.597 1.914 5.995-2.44 6.841m.001-48c.46-.717.421-2.287-.5-2.84-.705-.37-1.5-.225-1.873.092-.598.38-1.175 1.59-1.175 2.818l2.067-.003v2.416l-4.291-.003c.056 1.242.703 2.238 1.908 2.792-.155.523-.881 1.59-1.879 1.518-.197 1.13-.384 1.763-1.282 2.789-.898-1.026-1.084-1.66-1.282-2.79-.997.073-1.724-.994-1.88-1.517 1.206-.555 1.853-1.55 1.91-2.792l-4.292.003v-2.416l2.067.003c0-1.227-.576-2.439-1.175-2.818-.372-.317-1.168-.461-1.872-.093-.922.554-.962 2.124-.5 2.841-4.354-.846-3.922-5.244-2.44-6.841 1.2-1.29 2.506-1.492 3.514-1.085 2.29.859 3.83 3.72 3.904 7.996h1.198c0-3.886-.647-5.125-2.33-10.006-.848-2.307-.34-5.159 1.177-7.784C16.042 4.759 16.721 3.91 17.5 3c.78.91 1.458 1.76 2 2.7 1.518 2.626 2.027 5.478 1.18 7.785-1.686 4.88-2.332 6.12-2.332 10.006h1.198c.074-4.275 1.615-7.137 3.904-7.996 1.008-.406 2.316-.205 3.514 1.085 1.482 1.597 1.914 5.995-2.44 6.841M36 0h12v84H36z" fill="#FFF"/><path fill="#FFF" d="M0 36h84v12H0z"/></g></svg>