<svg width="84" height="84" viewBox="0 0 84 84" xmlns="http://www.w3.org/2000/svg"><title>hi</title><g fill="none" fill-rule="evenodd"><path fill="#FFF" d="M0 0h84v84H0z"/><path fill="#F39C12" d="M0 0h84v15.75H0z"/><path fill="#27AE60" d="M0 68h84v16H0z"/><path d="M42 21c11.598 0 21 9.402 21 21s-9.402 21-21 21-21-9.402-21-21 9.402-21 21-21" fill="#0065BD"/><path d="M42 23.625c10.148 0 18.375 8.227 18.375 18.375S52.148 60.375 42 60.375 23.625 52.148 23.625 42 31.852 23.625 42 23.625" fill="#FFF"/><path d="M42 38.325a3.675 3.675 0 1 1 0 7.35 3.675 3.675 0 0 1 0-7.35m18.338 5.162a.919.919 0 1 1-.24 1.823.919.919 0 0 1 .24-1.823" fill="#0065BD"/><path fill="#0065BD" d="M42 60.375l.63-11.025L42 44.1l-.63 5.25zm17.328-12.192a.919.919 0 1 1-.703 1.697.919.919 0 0 1 .703-1.697M37.244 59.749l3.462-10.486.75-5.235-1.967 4.908zm19.893-7.292a.919.919 0 1 1-1.118 1.458.919.919 0 0 1 1.118-1.458m-24.324 5.456l6.057-9.233 2.08-4.861-3.17 4.231zm21.102-1.894a.918.918 0 1 1-1.457 1.118.918.918 0 0 1 1.457-1.118m-24.908-1.026l8.241-7.35 3.267-4.158-4.158 3.267zm20.873 3.632a.919.919 0 1 1-1.697.703.919.919 0 0 1 1.698-.703m-23.794-7.437l9.863-4.967 4.231-3.171-4.861 2.08zm19.223 8.91a.919.919 0 1 1-1.822.24.919.919 0 0 1 1.821-.24M24.251 46.756l10.813-2.245 4.908-1.967-5.235.75zm16.262 13.582a.919.919 0 1 1-1.823-.24.919.919 0 0 1 1.823.24M23.625 42l11.025.63L39.9 42l-5.25-.63zm12.192 17.328a.919.919 0 1 1-1.697-.703.919.919 0 0 1 1.697.703M24.251 37.244l10.486 3.462 5.235.75-4.908-1.967zm7.292 19.893a.919.919 0 1 1-1.458-1.118.919.919 0 0 1 1.458 1.118m-5.456-24.324l9.233 6.058 4.861 2.079-4.231-3.17zm1.894 21.102a.918.918 0 1 1-1.118-1.457.918.918 0 0 1 1.118 1.457m1.026-24.908l7.35 8.241 4.158 3.267-3.267-4.158zM25.375 49.88a.919.919 0 1 1-.703-1.697.919.919 0 0 1 .703 1.698m7.438-23.794l4.967 9.863 3.17 4.231-2.08-4.861zM23.902 45.31a.919.919 0 1 1-.24-1.822.919.919 0 0 1 .24 1.821m13.342-21.058l2.245 10.813 1.967 4.908-.75-5.235zM23.662 40.513a.919.919 0 1 1 .24-1.823.919.919 0 0 1-.24 1.823M42 23.625l-.63 11.025.63 5.25.63-5.25zM24.672 35.817a.919.919 0 1 1 .703-1.697.919.919 0 0 1-.703 1.697m22.084-11.566l-3.462 10.486-.75 5.235 1.967-4.908zm-19.893 7.292a.919.919 0 1 1 1.118-1.458.919.919 0 0 1-1.118 1.458m24.325-5.456l-6.059 9.233-2.079 4.861 3.17-4.231zm-21.103 1.894a.918.918 0 1 1 1.457-1.118.918.918 0 0 1-1.457 1.118m24.908 1.026l-8.241 7.35-3.267 4.158 4.158-3.267zM34.12 25.375a.919.919 0 1 1 1.697-.703.919.919 0 0 1-1.698.703m23.794 7.438l-9.863 4.966-4.231 3.171 4.861-2.08zM38.69 23.902a.919.919 0 1 1 1.822-.24.919.919 0 0 1-1.821.24m21.058 13.342L48.936 39.49l-4.908 1.967 5.235-.75zM43.487 23.662a.919.919 0 1 1 1.823.24.919.919 0 0 1-1.823-.24M60.375 42l-11.025-.63-5.25.63 5.25.63zM48.183 24.672a.919.919 0 1 1 1.697.703.919.919 0 0 1-1.697-.703m11.566 22.084l-10.486-3.462-5.235-.75 4.908 1.967zm-7.292-19.893a.919.919 0 1 1 1.458 1.118.919.919 0 0 1-1.458-1.118m5.456 24.325l-9.233-6.059-4.861-2.079 4.231 3.17zm-1.894-21.103a.918.918 0 1 1 1.118 1.457.918.918 0 0 1-1.118-1.457m-1.026 24.908l-7.35-8.241-4.158-3.267 3.267 4.158zm3.632-20.873a.919.919 0 1 1 .703 1.697.919.919 0 0 1-.703-1.698m-7.437 23.794L46.22 48.05l-3.17-4.231 2.08 4.861zm8.91-19.223a.919.919 0 1 1 .24 1.822.919.919 0 0 1-.24-1.821M46.756 59.749L44.51 48.936l-1.967-4.908.75 5.235z"/></g></svg>