<svg width="84" height="84" viewBox="0 0 84 84" xmlns="http://www.w3.org/2000/svg"><title>hi</title><g fill="none" fill-rule="evenodd"><path fill="#FFF" d="M0 0h84v84H0z"/><path fill="#F39C12" d="M0 0h84v15.75H0z"/><path fill="#27AE60" d="M0 68h84v16H0z"/><path d="M42 21c11.598 0 21 9.402 21 21s-9.402 21-21 21-21-9.402-21-21 9.402-21 21-21" fill="#0065BD"/><path d="M42 23.625c10.148 0 18.375 8.227 18.375 18.375S52.148 60.375 42 60.375 23.625 52.148 23.625 42 31.852 23.625 42 23.625" fill="#FFF"/><path d="M42 38.325a3.675 3.675 0 1 1 0 7.35 3.675 3.675 0 0 1 0-7.35M60.338 43.487a.919.919 0 1 1-.24 1.823.919.919 0 0 1 .24-1.823" fill="#0065BD"/><path fill="#0065BD" d="M42 60.375l.63-11.025L42 44.1l-.63 5.25zM59.328 48.183a.919.919 0 1 1-.703 1.697.919.919 0 0 1 .703-1.697M37.244 59.749l3.462-10.486.75-5.235-1.967 4.908zM57.137 52.457a.919.919 0 1 1-1.118 1.458.919.919 0 0 1 1.118-1.458M32.813 57.913l6.057-9.233 2.08-4.861-3.17 4.231zM53.915 56.019a.918.918 0 1 1-1.457 1.118.918.918 0 0 1 1.457-1.118M29.007 54.993l8.241-7.35 3.267-4.158-4.158 3.267zM49.88 58.625a.919.919 0 1 1-1.697.703.919.919 0 0 1 1.698-.703M26.087 51.188l9.863-4.967 4.231-3.171-4.861 2.08zM45.31 60.098a.919.919 0 1 1-1.822.24.919.919 0 0 1 1.821-.24M24.251 46.756l10.813-2.245 4.908-1.967-5.235.75zM40.513 60.338a.919.919 0 1 1-1.823-.24.919.919 0 0 1 1.823.24M23.625 42l11.025.63L39.9 42l-5.25-.63zM35.817 59.328a.919.919 0 1 1-1.697-.703.919.919 0 0 1 1.697.703M24.251 37.244l10.486 3.462 5.235.75-4.908-1.967zM31.543 57.137a.919.919 0 1 1-1.458-1.118.919.919 0 0 1 1.458 1.118M26.087 32.813l9.233 6.058 4.861 2.079-4.231-3.17zM27.981 53.915a.918.918 0 1 1-1.118-1.457.918.918 0 0 1 1.118 1.457M29.007 29.007l7.35 8.241 4.158 3.267-3.267-4.158zM25.375 49.88a.919.919 0 1 1-.703-1.697.919.919 0 0 1 .703 1.698M32.813 26.087l4.967 9.863 3.17 4.231-2.08-4.861zM23.902 45.31a.919.919 0 1 1-.24-1.822.919.919 0 0 1 .24 1.821M37.244 24.251l2.245 10.813 1.967 4.908-.75-5.235zM23.662 40.513a.919.919 0 1 1 .24-1.823.919.919 0 0 1-.24 1.823M42 23.625l-.63 11.025.63 5.25.63-5.25zM24.672 35.817a.919.919 0 1 1 .703-1.697.919.919 0 0 1-.703 1.697M46.756 24.251l-3.462 10.486-.75 5.235 1.967-4.908zM26.863 31.543a.919.919 0 1 1 1.118-1.458.919.919 0 0 1-1.118 1.458M51.188 26.087l-6.059 9.233-2.079 4.861 3.17-4.231zM30.085 27.981a.918.918 0 1 1 1.457-1.118.918.918 0 0 1-1.457 1.118M54.993 29.007l-8.241 7.35-3.267 4.158 4.158-3.267zM34.12 25.375a.919.919 0 1 1 1.697-.703.919.919 0 0 1-1.698.703M57.913 32.813l-9.863 4.966-4.231 3.171 4.861-2.08zM38.69 23.902a.919.919 0 1 1 1.822-.24.919.919 0 0 1-1.821.24M59.749 37.244L48.936 39.49l-4.908 1.967 5.235-.75zM43.487 23.662a.919.919 0 1 1 1.823.24.919.919 0 0 1-1.823-.24M60.375 42l-11.025-.63-5.25.63 5.25.63zM48.183 24.672a.919.919 0 1 1 1.697.703.919.919 0 0 1-1.697-.703M59.749 46.756l-10.486-3.462-5.235-.75 4.908 1.967zM52.457 26.863a.919.919 0 1 1 1.458 1.118.919.919 0 0 1-1.458-1.118M57.913 51.188l-9.233-6.059-4.861-2.079 4.231 3.17zM56.019 30.085a.918.918 0 1 1 1.118 1.457.918.918 0 0 1-1.118-1.457M54.993 54.993l-7.35-8.241-4.158-3.267 3.267 4.158zM58.625 34.12a.919.919 0 1 1 .703 1.697.919.919 0 0 1-.703-1.698M51.188 57.913L46.22 48.05l-3.17-4.231 2.08 4.861zM60.098 38.69a.919.919 0 1 1 .24 1.822.919.919 0 0 1-.24-1.821M46.756 59.749L44.51 48.936l-1.967-4.908.75 5.235z"/></g></svg>