<svg width="84" height="84" viewBox="0 0 84 84" xmlns="http://www.w3.org/2000/svg" xmlns:xlink="http://www.w3.org/1999/xlink"><title>hr</title><defs><path d="M14 32c7.7 0 14-6.356 14-14.124V1H0v16.876C0 25.645 6.3 32 14 32z" id="b"/><path d="M14 31c7.7 0 14-6.356 14-14.124V0H0v16.876C0 24.645 6.3 31 14 31z" id="a"/><mask id="d" x="0" y="0" width="28" height="31" fill="#fff"><use xlink:href="#a"/></mask></defs><g fill="none" fill-rule="evenodd"><path fill="#FFF" d="M0 0h84v84.384H0z"/><path fill="#3498DB" d="M0 56h84v28H0z"/><path fill="#D0011B" d="M0 0h84v28H0z"/><g transform="translate(28 28)"><mask id="c" fill="#fff"><use xlink:href="#b"/></mask><use fill="#FFF" xlink:href="#b"/><path d="M11 1h6v6h-6zm0 12h6v6h-6zm0 12h6v6h-6zM0 25h6v6H0zm22 0h6v6h-6zM0 13h6v6H0zm22 0h6v6h-6zM6 19h5v6H6zm11 0h5v6h-5zM6 7h5v6H6zm11 0h5v6h-5zm5-6h6v6h-6zM0 1h6v6H0z" mask="url(#c)" fill="#D0011B"/><g stroke-width="2"><use stroke="#D0021B" xlink:href="#a"/><use stroke="#FFF" mask="url(#d)" xlink:href="#a"/></g></g><path d="M56.082 25.998l3.418-8.044-2.604-4.366-4.315 1.658-3.03-3.595-3.991 2.375L42 11l-3.559 3.026-3.991-2.375-3.03 3.595-4.315-1.658-2.605 4.366L27.914 26c4.708-2.454 8.946-3.36 13.961-3.36 5.013 0 8.372.906 14.207 3.358z" stroke="#FFF" stroke-width="2" fill="#FFF"/><path d="M45.21 14.457l-.008.005-3.517-2.947-3.51 2.941.662 8.152a33.8 33.8 0 0 1 5.71.001l.663-8.152z" fill="#3498DB"/><path d="M41.678 18.123c-.007 0-.016.004-.025.017l-.202.272c-.072.023-.09.069-.062.132-.096-.01-.107.073-.111.163-.093-.143-.193-.182-.301-.116-.004-.087-.07-.127-.162-.148a.303.303 0 0 1-.161-.055c-.023-.016-.041-.024-.063-.04-.047-.033-.084-.002-.064.028l.297.492a.07.07 0 0 0 .032.078l.052.15-.012.042c-.082-.04-.164-.044-.245-.05-.063-.003-.106-.019-.134-.052-.02-.024-.033-.01-.034.031a.797.797 0 0 0 .222.564l-.257.008c-.03.003-.035.015-.027.04a.495.495 0 0 0 .304.29.247.247 0 0 0-.132.196c-.003.085-.028.144-.078.172-.022.012-.03.025-.01.04.094.07.21.073.332.042a.538.538 0 0 0-.074.322.38.38 0 0 0 .227-.02.375.375 0 0 0-.019.117.311.311 0 0 1-.038.13c-.012.012-.024.032.001.038.124.035.24.02.338-.017 0 .091.001.184.028.275.007.021.026.038.046.01a.675.675 0 0 1 .195-.196c.012.034.028.063.058.081.035.02.054.064.056.13 0 .011 0 .023.013.034.055.002.19-.144.218-.226.076.046.105.093.162.174.02.03.037.011.048-.01.022-.09.024-.18.024-.273a.536.536 0 0 0 .338.018c.026-.007.013-.026.002-.039a.364.364 0 0 1-.042-.138c-.004-.05-.005-.085-.016-.108.075.026.15.04.227.02a.538.538 0 0 0-.078-.322c.122.03.242.028.335-.042.021-.016.013-.028-.009-.04-.05-.028-.074-.088-.078-.172a.246.246 0 0 0-.132-.197.496.496 0 0 0 .304-.29c.008-.025.002-.037-.027-.039-.085-.004-.177-.009-.263-.01a.804.804 0 0 0 .223-.565c0-.041-.013-.056-.033-.031-.028.032-.067.051-.13.055-.081.006-.16.009-.241.048l-.012-.042c.017-.05.039-.099.056-.15a.07.07 0 0 0 .033-.076c.098-.164.19-.328.288-.493.02-.03-.017-.06-.063-.028-.022.016-.04.025-.063.04a.307.307 0 0 1-.161.055c-.093.02-.154.064-.158.15-.109-.066-.209-.027-.301.117-.004-.09-.015-.173-.112-.164.028-.063.006-.11-.066-.133-.068-.094-.169-.178-.238-.272-.011-.013-.018-.018-.025-.017zm-1.606-3.67c-.006 0-.016.004-.024.018l-.192.28c-.07.026-.086.071-.056.134-.097-.006-.105.077-.106.167-.097-.14-.2-.174-.305-.104-.007-.087-.073-.125-.167-.142a.301.301 0 0 1-.163-.048c-.023-.015-.042-.023-.065-.038-.047-.031-.083.001-.062.03l.314.48c-.004.031.005.058.036.077l.057.148a5.4 5.4 0 0 1-.01.043c-.083-.037-.166-.038-.247-.04-.063-.002-.107-.016-.135-.047-.021-.023-.035-.009-.033.032.006.202.074.38.242.555-.085.005-.17.01-.256.018-.03.003-.035.016-.026.04a.496.496 0 0 0 .315.278.248.248 0 0 0-.125.201c0 .085-.022.146-.072.175-.022.013-.029.026-.007.04.096.067.211.066.332.03a.54.54 0 0 0-.061.324.38.38 0 0 0 .226-.028.375.375 0 0 0-.015.117.31.31 0 0 1-.034.131c-.011.013-.023.033.003.039.125.03.24.01.337-.031a.935.935 0 0 0 .038.274c.008.021.028.037.047.008a.68.68 0 0 1 .187-.203c.013.033.03.062.061.079.036.02.057.062.061.127 0 .012 0 .023.014.034.056 0 .185-.151.21-.234.077.042.108.089.168.168.021.027.037.01.047-.012.02-.092.018-.182.014-.274.1.033.216.044.339.004.025-.008.012-.027 0-.038a.368.368 0 0 1-.047-.136c-.005-.05-.008-.086-.02-.108a.378.378 0 0 0 .228.01.536.536 0 0 0-.09-.317c.123.025.243.018.334-.056.02-.016.011-.028-.01-.04-.052-.025-.079-.084-.086-.168a.246.246 0 0 0-.139-.192.497.497 0 0 0 .293-.301c.007-.025 0-.038-.028-.038-.086 0-.178-.003-.263 0a.805.805 0 0 0 .202-.574c-.002-.04-.016-.054-.035-.03-.026.034-.064.055-.127.06-.082.01-.16.016-.24.058l-.014-.042c.016-.05.036-.1.052-.15a.073.073 0 0 0 .03-.079c.092-.168.176-.335.27-.503.018-.03-.02-.06-.065-.026-.022.017-.04.026-.061.043a.306.306 0 0 1-.16.061c-.092.024-.151.07-.152.156-.11-.062-.21-.02-.296.128-.008-.09-.022-.172-.118-.16.025-.064.002-.11-.07-.13-.073-.091-.176-.17-.248-.262-.012-.013-.02-.017-.027-.016zm3.217-.001c-.007-.001-.017.003-.026.016-.072.092-.14.172-.212.264-.073.02-.092.065-.066.13-.096-.014-.11.068-.118.158-.087-.147-.186-.19-.296-.128-.001-.087-.064-.13-.157-.154a.303.303 0 0 1-.159-.061c-.021-.017-.04-.026-.06-.043-.046-.035-.084-.005-.066.026l.278.503c-.006.03 0 .057.03.079l.046.152-.013.042c-.08-.043-.162-.051-.244-.06-.062-.005-.105-.023-.13-.057-.02-.024-.034-.011-.036.03a.8.8 0 0 0 .2.572c-.085-.002-.17-.002-.257-.002-.029.001-.035.013-.028.038a.495.495 0 0 0 .293.302.247.247 0 0 0-.14.19c-.006.085-.032.144-.084.17-.023.011-.03.023-.01.04.09.073.206.08.329.055a.538.538 0 0 0-.085.318.38.38 0 0 0 .227-.01.378.378 0 0 0-.024.115.308.308 0 0 1-.043.128c-.012.012-.025.031 0 .039.123.04.239.029.339-.005a.935.935 0 0 0 .018.276c.006.022.024.04.045.012a.672.672 0 0 1 .202-.188.14.14 0 0 0 .055.083c.035.023.052.067.052.132 0 .012-.002.023.011.035.055.005.195-.136.226-.217.075.048.102.097.156.18.02.03.036.013.047-.007a1.06 1.06 0 0 0 .035-.273c.097.041.212.06.337.03.026-.005.014-.025.003-.038a.364.364 0 0 1-.036-.14c-.002-.05-.002-.085-.012-.108a.378.378 0 0 0 .226.028.539.539 0 0 0-.066-.324c.12.035.24.037.337-.03.021-.014.014-.027-.008-.04-.049-.03-.072-.09-.072-.175a.247.247 0 0 0-.124-.201.494.494 0 0 0 .314-.278c.01-.024.004-.037-.025-.04-.086-.007-.177-.016-.263-.02a.802.802 0 0 0 .244-.557c.002-.04-.012-.055-.032-.032-.029.032-.068.05-.131.05-.082.003-.16.003-.244.039l-.01-.043c.019-.05.043-.097.062-.146.03-.02.04-.045.035-.076.105-.16.202-.32.307-.481.021-.03-.015-.062-.062-.03-.023.015-.042.022-.064.037a.306.306 0 0 1-.164.049c-.093.017-.156.057-.163.144-.106-.07-.208-.036-.305.104-.001-.09-.01-.173-.106-.168.03-.062.01-.11-.06-.135-.066-.097-.163-.184-.228-.282-.011-.013-.018-.018-.025-.018z" fill="#FED225"/><path d="M52.149 15.647l-.01.003-2.993-3.5-3.935 2.307-.664 8.152c1.926.164 3.808.49 5.632.965l1.97-7.927z" fill="#0065BD"/><path d="M45.987 16.149c.137-.034.272-.042.403.04.057.025.1.056.127.095a1.79 1.79 0 0 1 .186-.131c.09-.068.181-.128.28-.162.141-.073.282-.117.423-.13.15-.026.3-.028.449-.019a.794.794 0 0 1 .36.11l.312.16c.11.063.22.12.33.167.14.056.297.075.465.082a.794.794 0 0 0 .241-.019c.064-.017.104.024.033.069-.517.324-.922.036-1.268-.094.126.088.238.179.332.271.132.13.279.262.54.383a1.281 1.281 0 0 0 .792.116c.044-.007.063-.003.063.02.001.016-.003.048-.03.066a.735.735 0 0 1-.398.125c-.267.017-.552-.072-.813-.216-.21-.115-.35-.255-.516-.38a1.161 1.161 0 0 0-.463-.228.906.906 0 0 0-.455.014.174.174 0 0 1 .097.054.735.735 0 0 0 .296.077c.07.009.048.058-.059.116a.273.273 0 0 1-.257.119c-.152.103-.207.04-.258-.027a.478.478 0 0 1-.036.125.098.098 0 0 1-.003.068.156.156 0 0 1 .029.117.099.099 0 0 0 .033.063.17.17 0 0 1 .057.105c0 .028.015.05.036.071.031.026.063.05.094.088.092.034.134.106.15.2.069.023.098.074.111.136.04.016.076.037.097.073.142 0 .28 0 .41.014.122.013.22.091.31.192.06.009.12.012.182-.002a.632.632 0 0 1 .205-.057 1.11 1.11 0 0 1 .36.01.36.36 0 0 1 .19.121c.072.084.184.073.28.032a.414.414 0 0 1 .368.004.354.354 0 0 1 .17-.026.197.197 0 0 1 .153-.069c.086-.003.148.01.132.124-.005.03-.022.06-.045.07-.04.088-.115.114-.21.105a.2.2 0 0 1-.073.134c.044.138.002.194-.099.192-.02.04-.052.065-.106.057a.214.214 0 0 1-.136.082c.006.037.021.054.046.093.069.105-.034.148-.128.15a.46.46 0 0 1 .018.21c.096.059.11.121.02.183.065.116.04.2-.08.263-.003.064-.009.13-.051.166-.029.025-.07.03-.043.076.05.083.038.189-.034.191-.016-.001-.03.001-.031.027 0 .008-.007.017-.022.026a1.499 1.499 0 0 0-.244.166c-.01.007-.022.013-.033.002a1.543 1.543 0 0 1-.27.37.232.232 0 0 1-.151.186.065.065 0 0 1-.05.052c.047.053.065.105.019.155a.459.459 0 0 1-.203.143c-.156.04-.254.033-.317-.028-.055-.054-.033-.095.002-.112-.097.008-.117-.044-.114-.114.006-.035.017-.03.051-.029.053.002.1-.028.15-.044a.297.297 0 0 1 .075-.086c.017-.112.086-.174.18-.211a.555.555 0 0 0 .219-.201l.13-.229a.2.2 0 0 1-.04-.121.234.234 0 0 1-.087-.083c-.068-.005-.096-.036-.106-.08a.156.156 0 0 1-.05-.006.191.191 0 0 1-.11.039 1.082 1.082 0 0 1-.17.145c-.02.058-.06.08-.11.088-.139.017-.222.195-.3.268-.03.023-.05.065-.063.115-.007.093-.023.167-.073.168-.045-.002-.052-.007-.053-.012a.186.186 0 0 0-.06.003c.038.042.044.096.01.143-.035.046-.085.06-.133.064a.546.546 0 0 1-.255-.034c-.071-.03-.08-.073-.077-.115-.052-.025-.062-.05-.057-.075.008-.032.036-.048.072-.038a.37.37 0 0 1 .093-.031c.09-.1.183-.185.285-.225a.464.464 0 0 1 .106-.098c.012-.089.069-.16.14-.225a.327.327 0 0 1 .034-.096c-.005-.02 0-.029.001-.047-.028-.054-.045-.119-.024-.173a.213.213 0 0 1-.008-.086c-.168.102-.22.067-.239-.016-.061.053-.118.077-.16.002-.059.018-.119.038-.178.014a.393.393 0 0 1-.123.033.487.487 0 0 1-.075.11.456.456 0 0 1-.077.231 1.514 1.514 0 0 1-.108.247.16.16 0 0 1-.017.08c.013.095-.018.14-.07.164a.383.383 0 0 1-.064.115l-.004.038c.02.056.023.112-.032.167a1.614 1.614 0 0 1-.14.083c-.056.028-.107.015-.154-.002-.083-.03-.076-.06-.066-.089a.098.098 0 0 1-.08-.001c-.021-.013-.033-.026-.053-.04-.018-.032-.024-.062.019-.085a.372.372 0 0 0 .134-.088c.015-.034.034-.06.06-.067.026-.062.058-.104.101-.115.032-.077.066-.162.106-.235.014-.022.024-.045.018-.07 0-.021 0-.041.018-.053.01-.008.026-.016.005-.027a.222.222 0 0 1 .025-.185c.044-.067.093-.23.046-.31a.462.462 0 0 1-.011-.137c-.016 0-.028.002-.044-.01-.035-.022-.065 0-.092.04-.02.05-.039.095-.058.095-.019.13-.082.232-.147.259a.478.478 0 0 0-.017.18c.007.065 0 .11-.03.117-.032.009-.062.028-.08.082a.164.164 0 0 0-.012.053c.045.048.031.107-.012.151-.098.098-.219.084-.347.045-.093-.037-.116-.077-.106-.117-.132-.012-.106-.115.003-.146a.54.54 0 0 0 .29-.22c.007-.13.037-.218.105-.232a.615.615 0 0 1 .064-.22.322.322 0 0 0 .043-.212c-.073-.046-.075-.094-.009-.144.022-.013.02-.026-.007-.04-.045-.005-.04-.048-.036-.089-.002-.021-.013-.032-.032-.032-.099-.015-.074-.056-.032-.101.018-.02.03-.05.01-.063-.014-.01-.025-.044-.028-.074-.06-.047-.034-.094 0-.14a.178.178 0 0 1-.055-.123c-.112-.005-.153-.063-.093-.148a.539.539 0 0 1 .099-.103c.025-.043.05-.086.038-.128-.032-.084.07-.147.158-.212a.144.144 0 0 1-.019-.065c-.05-.05-.037-.095.018-.138a.17.17 0 0 1-.02-.066c-.123.025-.123-.05-.065-.172-.072-.042-.052-.116.078-.23a.157.157 0 0 1 .014-.06.295.295 0 0 0-.156.049c-.05.033-.098.029-.147.008a.237.237 0 0 0-.065-.066.1.1 0 0 1-.035-.1c-.145.008-.172-.101-.086-.166a.273.273 0 0 0 .098-.126c.039-.101.122-.17.203-.242 0-.029.006-.058.015-.087a.238.238 0 0 0-.115-.046.186.186 0 0 0-.09-.102c-.026-.017-.035-.032-.018-.07-.077-.07-.058-.112-.039-.153z" fill="#FED225"/><path d="M55.554 25.477l3.235-7.5-2.386-3.942-4.255 1.612-1.969 7.927a33.674 33.674 0 0 1 5.375 1.904z" fill="#3498DB"/><path d="M51.43 18.54a38.65 38.65 0 0 1 6.173 2.185l-1.248 2.896a35.613 35.613 0 0 0-5.687-2.014l.762-3.068z" fill="#FFF"/><path d="M56.556 23.156l.834-1.934a38.173 38.173 0 0 0-6.09-2.157l-.492 1.978a36.22 36.22 0 0 1 5.777 2.046l-.03.067z" fill="#D0011B"/><path fill="#FED225" d="M54.603 15.619l.007.035.145.772-.579.516-.027.024.034.012.726.257.147.771.007.036.027-.024.58-.515.727.255.034.012-.007-.035-.146-.772.58-.517.026-.024-.034-.011-.725-.257-.148-.772-.007-.035-.027.023-.58.515-.726-.255z"/><g><path d="M31.238 15.642l-.006.008-4.264-1.615-2.386 3.941.914 2.126 2.316 5.378a33.734 33.734 0 0 1 5.393-1.909l-1.967-7.928z" fill="#3498DB"/><path fill="#FED225" d="M29.083 16.59l-.007.035-.146.765.574.513.027.024-.034.012-.72.254-.147.765-.007.035-.027-.024-.575-.511-.72.252-.034.011.007-.035.145-.765-.573-.513-.027-.024.033-.012.72-.253.148-.765.007-.035.026.023.575.511.721-.251z"/><path d="M38.176 14.456l-.007.006-3.944-2.313-2.987 3.493 1.966 7.929a33.57 33.57 0 0 1 5.633-.963l-.661-8.152z" fill="#0065BD"/><path d="M32.716 21.603c1.93-.503 3.92-.846 5.957-1.018l-.167-2.06c-2.15.181-4.25.544-6.287 1.074l.497 2.004zm-.988-3.985a39.405 39.405 0 0 1 6.613-1.13l-.164-2.023c-2.372.2-4.69.6-6.937 1.186l.488 1.967z" fill="#D0011B"/></g></g></svg>