<svg width="84" height="84" viewBox="0 0 84 84" xmlns="http://www.w3.org/2000/svg"><title>ko</title><g fill="none" fill-rule="evenodd"><path fill="#FFF" d="M0 84h84V0H0z"/><g stroke-width="2.625"><path d="M23.625 68.25l-10.5-15.75m6.563 18.375l-10.5-15.75M15.75 73.5L5.25 57.75" stroke="#2C3E50"/><path d="M13.125 64.312l3.937-2.624" stroke="#FFF"/></g><g stroke-width="2.625"><path d="M60.375 68.25l10.5-15.75m-6.562 18.375l10.5-15.75M68.25 73.5l10.5-15.75" stroke="#2C3E50"/><path d="M78.75 69.563L63 59.063" stroke="#FFF"/></g><g stroke-width="2.625"><path d="M60.375 15.75l10.5 15.75m-6.562-18.375l10.5 15.75M68.25 10.5l10.5 15.75" stroke="#2C3E50"/><path d="M66.938 22.313L63 24.937M78.75 14.438l-7.875 5.25" stroke="#FFF"/></g><path d="M23.625 15.75l-10.5 15.75m6.563-18.375l-10.5 15.75M15.75 10.5L5.25 26.25" stroke="#2C3E50" stroke-width="2.625"/><path d="M26.711 31.807c5.63-8.443 17.038-10.725 25.482-5.096 8.443 5.63 10.725 17.038 5.096 25.482-5.63 8.444-17.038 10.725-25.482 5.096-8.443-5.63-10.725-17.038-5.096-25.482" fill="#D0011B"/><path d="M26.711 31.807A9.187 9.187 0 1 0 42 42a9.187 9.187 0 0 1 12.74-2.548 9.187 9.187 0 0 1 2.549 12.74c-5.63 8.445-17.038 10.726-25.482 5.097-8.443-5.63-10.725-17.038-5.096-25.482" fill="#0065BD"/></g></svg>