<svg width="84" height="84" viewBox="0 0 84 84" xmlns="http://www.w3.org/2000/svg" xmlns:xlink="http://www.w3.org/1999/xlink"><title>sk</title><defs><path d="M15 37S1 32.5 1 19C1 7 2 1 2 1h26s1 7.156 1 18c0 13-14 18-14 18z" id="a"/><mask id="b" x="-2" y="-2" width="32" height="40"><path fill="#fff" d="M-1-1h32v40H-1z"/><use xlink:href="#a"/></mask><mask id="c" x="-2" y="-2" width="32" height="40"><path fill="#fff" d="M-1-1h32v40H-1z"/><use xlink:href="#a"/></mask><path d="M15 37S1 32.5 1 19C1 7 2 1 2 1h26s1 7.156 1 18c0 13-14 18-14 18z" id="d"/></defs><g fill="none" fill-rule="evenodd"><path fill="#3498DB" d="M0 0h84v84H0z"/><path fill="#D0011B" d="M0 56h84v28H0z"/><path fill="#FFF" d="M0 0h84v28H0z"/><g transform="translate(27 22)"><use mask="url(#c)" xlink:href="#a" stroke="#FFF" stroke-width="4"/><mask id="e" fill="#fff"><use xlink:href="#d"/></mask><use fill="#D0011B" xlink:href="#d"/><path d="M23 14v3.863c-3-.823-7-.823-7-.823V23h-2v-5.96s-4 0-7 .823V14c3 1 5.467 1.025 7 1v-4s-3 0-5.899 1V8C11 9 14 9 14 9s0-3-1-6h4c-1 3-1 6-1 6s3 0 6-1v4c-3-1-4.603-1.013-6-1v4s4 0 7-1z" fill="#FFF" mask="url(#e)"/><path d="M10.5 26.5s-1-2.5-4-2.5-4 2.5-4 2.5C4 33 11.408 36.248 15 38c3.591-1.752 10-6 12.5-11.5 0 0-1-2.5-4-2.5s-4 2.5-4 2.5-1-4.5-4.5-4.5c-3.502 0-4.5 4.5-4.5 4.5z" fill="#3498DB" mask="url(#e)"/></g></g></svg>