<svg width="84" height="84" viewBox="0 0 84 84" xmlns="http://www.w3.org/2000/svg" xmlns:xlink="http://www.w3.org/1999/xlink"><title>sr</title><defs><path d="M0 38.001c0 3.58 1.46 6.83 3.815 9.184a12.96 12.96 0 0 0 18.37 0A12.958 12.958 0 0 0 26 38.002V18H0v20.001z" id="a"/><mask id="c" x="-1" y="-1" width="28" height="35"><path fill="#fff" d="M-1 17h28v35H-1z"/><use xlink:href="#a"/></mask><path d="M1.667 5L.115 8.725a.33.33 0 0 0 .16.414S1.667 10 5 10c3.333 0 4.743-.87 4.743-.87.142-.071.202-.263.142-.405L8.333 5H1.667z" id="d"/><filter x="-50%" y="-50%" width="200%" height="200%" filterUnits="objectBoundingBox" id="e"><feOffset dy="-1" in="SourceAlpha" result="shadowOffsetInner1"/><feComposite in="shadowOffsetInner1" in2="SourceAlpha" operator="arithmetic" k2="-1" k3="1" result="shadowInnerInner1"/><feColorMatrix values="0 0 0 0 0.8419696 0 0 0 0 0.8419696 0 0 0 0 0.8419696 0 0 0 1 0" in="shadowInnerInner1"/></filter><path d="M2.333 3l-1.21 2.723c-.068.153-.005.355.127.433 0 0 1.083.844 3.75.844s3.75-.844 3.75-.844a.359.359 0 0 0 .127-.433L7.667 3H2.333z" id="f"/><filter x="-50%" y="-50%" width="200%" height="200%" filterUnits="objectBoundingBox" id="g"><feOffset dy="-1" in="SourceAlpha" result="shadowOffsetInner1"/><feComposite in="shadowOffsetInner1" in2="SourceAlpha" operator="arithmetic" k2="-1" k3="1" result="shadowInnerInner1"/><feColorMatrix values="0 0 0 0 0.8419696 0 0 0 0 0.8419696 0 0 0 0 0.8419696 0 0 0 1 0" in="shadowInnerInner1"/></filter><path d="M3 0l-.918 3.214a.335.335 0 0 0 .197.397S3 4 5 4s2.736-.394 2.736-.394c.146-.059.226-.239.182-.392L7 0H3z" id="h"/><filter x="-50%" y="-50%" width="200%" height="200%" filterUnits="objectBoundingBox" id="i"><feOffset dy="-1" in="SourceAlpha" result="shadowOffsetInner1"/><feComposite in="shadowOffsetInner1" in2="SourceAlpha" operator="arithmetic" k2="-1" k3="1" result="shadowInnerInner1"/><feColorMatrix values="0 0 0 0 0.8419696 0 0 0 0 0.8419696 0 0 0 0 0.8419696 0 0 0 1 0" in="shadowInnerInner1"/></filter><path d="M5.5 0S4.5.5 3 3c1.5.5 2.5 0 2.5 0s0 1 1 1.5c1-1 1.5-2 1.5-2L5.5 0z" id="j"/><filter x="-50%" y="-50%" width="200%" height="200%" filterUnits="objectBoundingBox" id="k"><feOffset dy="-1" in="SourceAlpha" result="shadowOffsetInner1"/><feComposite in="shadowOffsetInner1" in2="SourceAlpha" operator="arithmetic" k2="-1" k3="1" result="shadowInnerInner1"/><feColorMatrix values="0 0 0 0 0.8419696 0 0 0 0 0.8419696 0 0 0 0 0.8419696 0 0 0 1 0" in="shadowInnerInner1"/></filter><path d="M5.5 0S4.5.5 3 3c1.5.5 2.5 0 2.5 0s0 1 1 1.5c1-1 1.5-2 1.5-2L5.5 0z" id="l"/><filter x="-50%" y="-50%" width="200%" height="200%" filterUnits="objectBoundingBox" id="m"><feOffset dy="-1" in="SourceAlpha" result="shadowOffsetInner1"/><feComposite in="shadowOffsetInner1" in2="SourceAlpha" operator="arithmetic" k2="-1" k3="1" result="shadowInnerInner1"/><feColorMatrix values="0 0 0 0 0.8419696 0 0 0 0 0.8419696 0 0 0 0 0.8419696 0 0 0 1 0" in="shadowInnerInner1"/></filter><path d="M.5 9.5s-1 2-.5 6 .5 5 .5 7c1 0 1.5-1 1.5-1v1c1 0 2-.5 2-1.5 1 0 1-1 1-3 1 0 2.5 1 2.5-3V9.5h-7z" id="n"/><filter x="-50%" y="-50%" width="200%" height="200%" filterUnits="objectBoundingBox" id="o"><feOffset dy="-1" in="SourceAlpha" result="shadowOffsetInner1"/><feComposite in="shadowOffsetInner1" in2="SourceAlpha" operator="arithmetic" k2="-1" k3="1" result="shadowInnerInner1"/><feColorMatrix values="0 0 0 0 0.8419696 0 0 0 0 0.8419696 0 0 0 0 0.8419696 0 0 0 1 0" in="shadowInnerInner1"/></filter><path d="M.5 6.5s-3 7 2 7.5c1-.5 1-2 1-2s0 1 1 1 .75-.375 1-1c.5 1 1 1 2.5 1s.5-3 .5-3l-6-7-2 3.5z" id="p"/><filter x="-50%" y="-50%" width="200%" height="200%" filterUnits="objectBoundingBox" id="q"><feOffset dy="-1" in="SourceAlpha" result="shadowOffsetInner1"/><feComposite in="shadowOffsetInner1" in2="SourceAlpha" operator="arithmetic" k2="-1" k3="1" result="shadowInnerInner1"/><feColorMatrix values="0 0 0 0 0.8419696 0 0 0 0 0.8419696 0 0 0 0 0.8419696 0 0 0 1 0" in="shadowInnerInner1"/></filter><path d="M0 9.5s-.5-1.5 0-5S3-.5 4 0s-.5 1-.5 2.5 4.5 6 4.5 6L7 11 3.5 6s-.5.453-1-.547C1.5 8.5 0 9.5 0 9.5z" id="r"/><filter x="-50%" y="-50%" width="200%" height="200%" filterUnits="objectBoundingBox" id="s"><feOffset dy="-1" in="SourceAlpha" result="shadowOffsetInner1"/><feComposite in="shadowOffsetInner1" in2="SourceAlpha" operator="arithmetic" k2="-1" k3="1" result="shadowInnerInner1"/><feColorMatrix values="0 0 0 0 0.8419696 0 0 0 0 0.8419696 0 0 0 0 0.8419696 0 0 0 1 0" in="shadowInnerInner1"/></filter><path d="M.5 9.5s-1 2-.5 6 .5 5 .5 7c1 0 1.5-1 1.5-1v1c1 0 2-.5 2-1.5 1 0 1-1 1-3 1 0 2.5 1 2.5-3V9.5h-7z" id="t"/><filter x="-50%" y="-50%" width="200%" height="200%" filterUnits="objectBoundingBox" id="u"><feOffset dy="-1" in="SourceAlpha" result="shadowOffsetInner1"/><feComposite in="shadowOffsetInner1" in2="SourceAlpha" operator="arithmetic" k2="-1" k3="1" result="shadowInnerInner1"/><feColorMatrix values="0 0 0 0 0.8419696 0 0 0 0 0.8419696 0 0 0 0 0.8419696 0 0 0 1 0" in="shadowInnerInner1"/></filter><path d="M.5 6.5s-3 7 2 7.5c1-.5 1-2 1-2s0 1 1 1 .75-.375 1-1c.5 1 1 1 2.5 1s.5-3 .5-3l-6-7-2 3.5z" id="v"/><filter x="-50%" y="-50%" width="200%" height="200%" filterUnits="objectBoundingBox" id="w"><feOffset dy="-1" in="SourceAlpha" result="shadowOffsetInner1"/><feComposite in="shadowOffsetInner1" in2="SourceAlpha" operator="arithmetic" k2="-1" k3="1" result="shadowInnerInner1"/><feColorMatrix values="0 0 0 0 0.8419696 0 0 0 0 0.8419696 0 0 0 0 0.8419696 0 0 0 1 0" in="shadowInnerInner1"/></filter><path d="M0 9.5s-.5-1.5 0-5S3-.5 4 0s-.5 1-.5 2.5 4.5 6 4.5 6L7 11 3.5 6s-.5.453-1-.547C1.5 8.5 0 9.5 0 9.5z" id="x"/><filter x="-50%" y="-50%" width="200%" height="200%" filterUnits="objectBoundingBox" id="y"><feOffset dy="-1" in="SourceAlpha" result="shadowOffsetInner1"/><feComposite in="shadowOffsetInner1" in2="SourceAlpha" operator="arithmetic" k2="-1" k3="1" result="shadowInnerInner1"/><feColorMatrix values="0 0 0 0 0.8419696 0 0 0 0 0.8419696 0 0 0 0 0.8419696 0 0 0 1 0" in="shadowInnerInner1"/></filter><path d="M10 .02v9c0 1.438-1.008 4-5.004 4C1 13.02 0 10.457 0 9.02v-9h10z" id="b"/><mask id="z" x="-1" y="-1" width="12" height="15"><path fill="#fff" d="M-1-.98h12v15H-1z"/><use xlink:href="#b"/></mask></defs><g fill="none" fill-rule="evenodd"><path fill="#3498DB" d="M0 0h84v84H0z"/><path fill="#FFF" d="M0 56h84v28H0z"/><path fill="#D0011B" d="M0 0h84v28H0z"/><g><g transform="translate(29 10)"><use fill="#C6363C" xlink:href="#a"/><use stroke="#FFF" mask="url(#c)" stroke-width="2" xlink:href="#a"/></g><g transform="translate(37 50)"><use fill="#FFF" xlink:href="#d"/><use fill="#000" filter="url(#e)" xlink:href="#d"/></g><g transform="translate(37 50)"><use fill="#FFF" xlink:href="#f"/><use fill="#000" filter="url(#g)" xlink:href="#f"/></g><g transform="translate(37 50)"><use fill="#FFF" xlink:href="#h"/><use fill="#000" filter="url(#i)" xlink:href="#h"/></g><path d="M36.5 48.5s-1.5 2-2.5 3c-1-.5-2.5-2-3.5 1 1-1 2.5 0 2.5 0s-2 .5-1.5 2.5c.5-1 2-1.5 2-1.5s-1 1.5.5 3c0-1.5.5-2.5 1-3s1-1 2.5-1c-.5-1-2-.5-2-.5l2-2.5-1-1z" fill="#FFCF0F"/><g transform="translate(31 47)"><use fill="#FFF" xlink:href="#j"/><use fill="#000" filter="url(#k)" xlink:href="#j"/></g><path d="M47.5 48.5s1.5 2 2.5 3c1-.5 2.5-2 3.5 1-1-1-2.5 0-2.5 0s2 .5 1.5 2.5c-.5-1-2-1.5-2-1.5s1 1.5-.5 3c0-1.5-.5-2.5-1-3s-1-1-2.5-1c.5-1 2-.5 2-.5l-2-2.5 1-1z" fill="#FFCF0F"/><g transform="matrix(-1 0 0 1 53 47)"><use fill="#FFF" xlink:href="#l"/><use fill="#000" filter="url(#m)" xlink:href="#l"/></g><g transform="translate(30 29)"><use fill="#FFF" xlink:href="#n"/><use fill="#000" filter="url(#o)" xlink:href="#n"/></g><g transform="translate(30 29)"><use fill="#FFF" xlink:href="#p"/><use fill="#000" filter="url(#q)" xlink:href="#p"/></g><g transform="translate(30 29)"><use fill="#FFF" xlink:href="#r"/><use fill="#000" filter="url(#s)" xlink:href="#r"/></g><g><g transform="matrix(-1 0 0 1 54 29)"><use fill="#FFF" xlink:href="#t"/><use fill="#000" filter="url(#u)" xlink:href="#t"/></g><g transform="matrix(-1 0 0 1 54 29)"><use fill="#FFF" xlink:href="#v"/><use fill="#000" filter="url(#w)" xlink:href="#v"/></g><g transform="matrix(-1 0 0 1 54 29)"><use fill="#FFF" xlink:href="#x"/><use fill="#000" filter="url(#y)" xlink:href="#x"/></g></g><g transform="translate(31 10)"><path d="M10.995 3.216c.73 0 1.322.576 1.322 1.286 0 .71-.592 1.287-1.322 1.287-.73 0-1.322-.576-1.322-1.287 0-.71.592-1.286 1.322-1.286" fill="#0C4076"/><path d="M10.995 3.178c.007.052.005.095-.061.078a1.289 1.289 0 0 0-1.088.691 1.221 1.221 0 0 0-.133.556c-.055.007-.098.004-.077-.06.017-.47.315-.918.752-1.125.187-.092.397-.14.607-.14zm-1.36 1.325c.053-.008.097-.005.08.06.016.444.302.867.717 1.061.174.084.369.127.563.127.007.052.005.095-.062.074a1.367 1.367 0 0 1-1.152-.724 1.297 1.297 0 0 1-.146-.598zm1.36 1.324c-.007-.052-.004-.095.062-.077a1.289 1.289 0 0 0 1.087-.692 1.22 1.22 0 0 0 .134-.555c.054-.007.098-.004.076.06-.016.47-.315.917-.751 1.125a1.392 1.392 0 0 1-.608.139zm1.361-1.324c-.054.007-.097.004-.08-.06a1.252 1.252 0 0 0-.717-1.062 1.315 1.315 0 0 0-.564-.127c-.007-.052-.004-.095.062-.074.483.016.94.306 1.152.725.097.184.146.39.147.598z" fill="#21231E"/><path d="M10.356 6c.052 0 0-1 0-1C7.5 4.5 3 5.43 3 7.392c0 2 1 3 1 3l2 1.5.5-2S5 8 5 7s3.5-1 5.356-1z" fill="#FFCF0F"/><path d="M9 5s1 .5 2 .5 2-.5 2-.5-.5 2.5 0 4.5c-1 .5-2 2.5-2 2.5s-1-2-2-2.5C9.5 7.5 9 5 9 5z" fill="#FFCF0F"/><rect fill="#FFCF0F" x="10" width="2" height="5" rx="8"/><rect fill="#FFCF0F" x="8.5" y="2" width="5" height="1" rx="8"/><path d="M11.623 6c-.052 0 0-1 0-1 2.856-.5 7.356.43 7.356 2.392 0 2-1 3-1 3l-2 1.5-.5-2S16.98 8 16.98 7s-3.5-1-5.356-1z" fill="#FFCF0F"/><ellipse fill="#3498DB" cx="11" cy="4.5" rx="2" ry="1.5"/><path d="M5 6l-.5 1C3.5 7 1 7.77 1 8.5c0 1 1.5 2.5 1.5 2.5L2 13s-2-2.5-2-4.5S5 6 5 6zM17 6l.5 1c1 0 3.5.77 3.5 1.5 0 1-1.5 2.5-1.5 2.5l.5 2s2-2.5 2-4.5S17 6 17 6zM3.5 14C3 14 2 13 2 13l1 2h16l1-2s-1 1-1.5 1 0-1.5 0-1.5S18 14 17 14s-1-2-1-2-.5 2-1.5 2-1-1.5-1-1.5S13 14 12 14c-.5 0-1-2-1-2s-.5 2-1 2c-1 0-1.5-1.5-1.5-1.5s0 1.5-1 1.5S6 12 6 12s-.5 2-1 2-1.5-1.5-1.5-1.5.5 1.5 0 1.5z" fill="#FFCF0F"/><circle fill="#3498DB" cx="11" cy="12" r="1"/><rect fill="#F39C12" x="2.5" y="15" width="17" height="1" rx="8"/><circle fill="#3498DB" cx="6" cy="12" r="1"/><circle fill="#3498DB" cx="16" cy="12" r="1"/><circle fill="#3498DB" cx="20" cy="13" r="1"/><rect fill="#FFCF0F" x="3" y="16" width="16" height="1" rx=".2"/><circle fill="#FFF" cx="18.5" cy="12.5" r=".7"/><ellipse fill="#3498DB" cx="11" cy="15.5" rx="1" ry=".5"/><circle fill="#3498DB" cx="2.5" cy="15.5" r=".5"/><circle fill="#3498DB" cx="19.5" cy="15.5" r=".5"/><ellipse fill="#D0011B" cx="6" cy="15.5" rx="1" ry=".5"/><ellipse fill="#D0011B" cx="16" cy="15.5" rx="1" ry=".5"/><circle fill="#FFF" cx="13.5" cy="12.5" r=".7"/><circle fill="#3498DB" cx="2" cy="13" r="1"/><circle fill="#FFF" cx="8.5" cy="12.5" r=".7"/><circle fill="#FFF" cx="3.5" cy="12.5" r=".7"/></g><g><path d="M41.5 29.5c-1 0-1.53-.265-2-.5-2-1-3.5-.5-2.5.5s2 1 2 4.5c0 1.5-2.5 2.5-2.5 2.5h6c0-1.5-1-5.5-1.5-6 .5 0 .5-.5.5-1z" fill="#FFF"/><path d="M42.5 29.5c1 0 1.53-.265 2-.5 2-1 3.5-.5 2.5.5s-2 1-2 4.5c0 1.5 2.5 2.5 2.5 2.5h-6c0-1.5 1-5.5 1.5-6-.5 0-.5-.5-.5-1z" fill="#FFF"/><path d="M37.2 30.625c-.567-.012-.8.7-.8.7s-1.4-.7-1.4-1.7 2.2-.5 2.2-.5 2.3 2.375 2.3 3.375c0 0 .105.5-1 .5s-1.8-.875-1.8-.875c1 0 2.105.5 1.605-.5-.201-.403-.722-.992-1.105-1zM46.803 30.625c.567-.012.8.7.8.7s1.4-.7 1.4-1.7-2.2-.5-2.2-.5-2.3 2.375-2.3 3.375c0 0-.105.5 1 .5s1.8-.875 1.8-.875c-1 0-2.105.5-1.605-.5.201-.403.722-.992 1.105-1z" fill="#FFCF0F"/><path d="M39.5 31a.5.5 0 0 0 0-1c-.12 0-.7-.2-.7-.2s.2.543.2.7a.5.5 0 0 0 .5.5zM44.5 31a.5.5 0 1 1 0-1c.12 0 .7-.2.7-.2s-.2.543-.2.7a.5.5 0 0 1-.5.5z" fill="#000"/></g><g transform="translate(37 37)"><mask id="A" fill="#fff"><use xlink:href="#b"/></mask><use fill="#C6363C" xlink:href="#b"/><use stroke="#000" mask="url(#z)" stroke-width="2" xlink:href="#b"/><path d="M11 5v2H6v7H4V7h-5V5h5V1.401-1h2v6h5z" fill="#FFF" mask="url(#A)"/><path d="M2.125 1.816A.7.7 0 1 1 1.5.8H3v3.4H1.5a.7.7 0 1 1 .625-1.016C2.124 2.997 2 2.75 2 2.5c0-.249.124-.497.125-.684z" fill="#FFF" mask="url(#A)"/><path d="M8.325 8.816A.7.7 0 1 1 7.7 7.8h1.5v3.4H7.7a.7.7 0 1 1 .625-1.016C8.324 9.997 8.2 9.75 8.2 9.5c0-.249.124-.497.125-.684z" fill="#FFF" mask="url(#A)" transform="matrix(-1 0 0 1 16.2 0)"/><path d="M2.125 8.816A.7.7 0 1 1 1.5 7.8H3v3.4H1.5a.7.7 0 1 1 .625-1.016C2.124 9.997 2 9.75 2 9.5c0-.249.124-.497.125-.684z" fill="#FFF" mask="url(#A)" transform="matrix(1 0 0 -1 0 19)"/><path d="M8.325 1.816A.7.7 0 1 1 7.7.8h1.5v3.4H7.7a.7.7 0 1 1 .625-1.016C8.324 2.997 8.2 2.75 8.2 2.5c0-.249.124-.497.125-.684z" fill="#FFF" mask="url(#A)" transform="matrix(-1 0 0 1 16.2 0)"/></g></g></g></svg>