<svg width="84" height="84" viewBox="0 0 84 84" xmlns="http://www.w3.org/2000/svg"><title>tl</title><g fill="none" fill-rule="evenodd"><path fill="#3498DB" d="M0 84h84V0H0z"/><path fill="#D0011B" d="M0 84h84V42H0z"/><path fill="#FFF" d="M0 0v84l73-42z"/><g fill="#FED225"><path d="M26.133 33.6a8.4 8.4 0 1 1 0 16.8 8.4 8.4 0 0 1 0-16.8"/><path d="M8.4 42l1.09 1.09L26.134 42 9.491 40.91z"/><path d="M10.267 44.089l.89.89L26.133 42zM10.267 39.911l.89-.89L26.133 42zM13.594 29.46v1.543L26.134 42 15.136 29.46zM13.437 32.258v1.258L26.133 42z"/><path d="M16.39 29.303h1.26L26.133 42z"/><path d="M26.133 24.267l-1.09 1.09L26.132 42l1.091-16.642z"/><path d="M24.044 26.133l-.89.89L26.134 42z"/><path d="M28.222 26.133l.89.89L26.133 42zM38.673 29.46H37.13L26.133 42l12.54-10.997z"/><path d="M35.876 29.303h-1.26L26.134 42z"/><path d="M38.83 32.258v1.258L26.133 42zM43.867 42l-1.091-1.09L26.133 42l16.643 1.09zM42 39.911l-.89-.89L26.133 42zM42 44.089l-.89.89L26.133 42zM38.673 54.54v-1.543L26.133 42 37.13 54.54zM38.83 51.742v-1.258L26.133 42z"/><path d="M35.876 54.697h-1.26L26.134 42zM26.133 59.733l1.091-1.09L26.134 42l-1.092 16.642z"/><path d="M28.222 57.867l.89-.89L26.133 42z"/><path d="M24.044 57.867l-.89-.89L26.134 42zM13.594 54.54h1.543L26.133 42l-12.54 10.997zM16.39 54.697h1.26L26.133 42zM13.437 51.742v-1.258L26.133 42zM64.346 42l-3.156 1.097-.068 3.341-2.02-2.663-3.198.968L57.813 42zM64.346 42l-3.156-1.097-.068-3.341-2.02 2.663-3.198-.968L57.813 42zM4.2 76.725l.628-3.282-2.86-1.73 3.316-.416.762-3.254 1.42 3.024zM4.2 76.725l2.528-2.185 2.928 1.612-1.297-3.08 2.438-2.286-3.33.281zM4.2 7.275L6.728 9.46l2.928-1.612-1.297 3.08 2.438 2.286-3.33-.281zM4.2 7.275l.628 3.282-2.86 1.73 3.316.416.762 3.254 1.42-3.024z"/></g></g></svg>