<svg width="84" height="84" viewBox="0 0 84 84" xmlns="http://www.w3.org/2000/svg"><title>ur</title><g fill="none" fill-rule="evenodd"><path fill="#27AE60" d="M0 0h84v84H0z"/><path d="M41.418 12.12c16.351 0 29.606 13.156 29.606 29.385 0 16.23-13.255 29.386-29.606 29.386-16.35 0-29.605-13.156-29.605-29.386 0-16.229 13.255-29.385 29.605-29.385" fill="#FFF"/><path d="M30.956 14.696c11.202-9.884 28.356-8.883 38.314 2.237 9.957 11.119 8.948 28.145-2.254 38.029-11.202 9.883-28.356 8.882-38.314-2.237-9.957-11.12-8.948-28.146 2.254-38.03" fill="#27AE60"/><path fill="#FFF" d="M58.682 31.96l-4.098 7.13-.558-8.205-8.046-1.694 7.63-3.066-.875-8.176 5.273 6.31 7.505-3.36-4.37 6.965 5.514 6.1z"/></g></svg>