<svg width="84" height="84" viewBox="0 0 84 84" xmlns="http://www.w3.org/2000/svg"><title>zh</title><g fill="none" fill-rule="evenodd"><path fill="#D0011B" d="M0 0h84v84H0z"/><path d="M21.766 37.044l9.785 7.094-3.726-11.49 9.777-7.117H25.508l-3.742-11.49-3.749 11.49H5.927l9.777 7.117-3.727 11.49 9.79-7.094zm28.719-21.208l4.48-1.115-4.27-1.742.323-4.593-2.975 3.527-4.279-1.735 2.44 3.921-2.975 3.522 4.484-1.101 2.443 3.913.329-4.597zm0 38.36l4.48-1.11-4.27-1.738.323-4.601-2.975 3.527-4.279-1.733 2.44 3.92-2.975 3.523 4.484-1.1 2.443 3.91.329-4.599zM61.21 27.762l4.547.777-3.22-3.302 2.142-4.089-4.139 2.045-3.225-3.304.664 4.569-4.139 2.04 4.55.783.667 4.56 2.153-4.08zm-1.432 16.513l3.826 2.58-1.565-4.335 3.635-2.84-4.613.159-1.572-4.337-1.289 4.43-4.609.153 3.822 2.592-1.278 4.425 3.643-2.827z" fill="#FED225"/></g></svg>