<svg width="84" height="84" viewBox="0 0 84 84" xmlns="http://www.w3.org/2000/svg"><title>sl</title><g fill="none" fill-rule="evenodd"><path fill="#FFF" d="M0 0h84v84H0z"/><path fill="#3498DB" d="M0 36h84v48H0z"/><path fill="#D0011B" d="M0 60h84v24H0z"/><path d="M55.789 36.19l1.26-18.597a36.252 36.252 0 0 0-31.049 0l1.26 18.597A20.131 20.131 0 0 0 41.524 54.1 20.131 20.131 0 0 0 55.79 36.19" fill="#3498DB"/><path d="M29.881 38.71a17.89 17.89 0 0 0 11.643 13.036A17.89 17.89 0 0 0 53.168 38.71l-5.822-7.763-2.329 3.105-3.493-6.986-3.493 6.986-2.328-3.105-5.822 7.763" fill="#FFF"/><path d="M30.401 40.65a3.881 3.881 0 0 0 5.302 1.42 3.881 3.881 0 0 1 3.881 0c1.2.694 2.68.694 3.881 0a3.881 3.881 0 0 1 3.881 0 3.881 3.881 0 0 0 5.302-1.42v1.12a3.881 3.881 0 0 1-5.302 1.421 3.881 3.881 0 0 0-3.88 0 3.884 3.884 0 0 1-3.882 0 3.881 3.881 0 0 0-3.881 0 3.881 3.881 0 0 1-5.302-1.42v-1.12z" fill="#3498DB"/><path d="M30.401 42.891a3.881 3.881 0 0 0 5.302 1.42 3.881 3.881 0 0 1 3.881 0c1.2.694 2.68.694 3.881 0a3.881 3.881 0 0 1 3.881 0 3.881 3.881 0 0 0 5.302-1.42v1.12a3.881 3.881 0 0 1-5.302 1.421 3.881 3.881 0 0 0-3.88 0 3.884 3.884 0 0 1-3.882 0 3.881 3.881 0 0 0-3.881 0 3.881 3.881 0 0 1-5.302-1.42V42.89z" fill="#3498DB"/><path d="M41.524 21.73l.291.951.97-.223-.678.727.678.728-.97-.224-.29.952-.292-.952-.969.224.678-.728-.678-.727.97.223zm-4.366-5.822l.291.951.97-.223-.679.728.679.727-.97-.223-.29.951-.292-.951-.97.223.679-.727-.678-.728.97.223zm8.732 0l.292.951.97-.223-.68.728.68.727-.97-.223-.291.951-.291-.951-.97.223.678-.727-.678-.728.97.223z" fill="#FED225"/><path d="M27.09 17.098l1.288 19.017a19.01 19.01 0 0 0 13.146 16.811 19.01 19.01 0 0 0 13.147-16.811l1.289-19.017c.36.171.723.336 1.089.495l-1.26 18.597A20.131 20.131 0 0 1 41.524 54.1 20.131 20.131 0 0 1 27.26 36.19L26 17.593c.366-.16.729-.324 1.09-.495" fill="#D0011B"/></g></svg>