<svg width="84" height="84" viewBox="0 0 84 84" xmlns="http://www.w3.org/2000/svg"><title>tr</title><g fill="none" fill-rule="evenodd"><path fill="#D0011B" d="M0 0h84v84H0z"/><path d="M34.84 18.375c13.443 0 24.34 10.871 24.34 24.281 0 13.41-10.897 24.282-24.34 24.282S10.5 56.066 10.5 42.656s10.897-24.281 24.34-24.281" fill="#FFF"/><path d="M40.925 23.231c10.754 0 19.472 8.697 19.472 19.425 0 10.728-8.718 19.425-19.472 19.425-10.754 0-19.472-8.697-19.472-19.425 0-10.728 8.718-19.425 19.472-19.425" fill="#D0011B"/><path fill="#FFF" d="M66.744 46.838l-4.58 7.967-.624-9.168-8.993-1.894 8.528-3.427-.978-9.137 5.894 7.05 8.388-3.753-4.885 7.784 6.163 6.818z"/></g></svg>