<svg width="84" height="84" viewBox="0 0 84 84" xmlns="http://www.w3.org/2000/svg"><title>ms_MY</title><g fill="none" fill-rule="evenodd"><path fill="#FFF" d="M0 0h84v84H0z"/><path d="M0 63v10h84V63H0zm0-42v10h84V21H0zm0 21v10h84V42H0zM0 0v10h84V0H0z" fill="#D0011B"/><path fill="#0065BD" d="M0 0h63v52H0z"/><g fill="#FED225"><path d="M6.563 26.25c0 10.143 8.297 18.375 18.375 18.375 3.84 0 7.281-1.076 10.5-2.625h-5.25c-10.405 0-16.872-6.707-17.063-15.75.191-8.944 6.766-15.75 17.063-15.75h5.25c-2.957-1.467-6.52-2.625-10.5-2.625-10.078 0-18.375 8.232-18.375 18.375z"/><path d="M54.741 35.615l-7.655-3.993 2.264 8.174-5.12-6.838-1.598 8.322-1.57-8.327-5.142 6.822 2.289-8.167-7.668 3.971 5.696-6.39-8.675.333 7.975-3.346-7.964-3.37 8.674.358-5.676-6.407 7.655 3.994-2.263-8.174 5.12 6.838 1.597-8.322 1.571 8.327 5.142-6.822-2.29 8.167 7.668-3.971-5.696 6.39 8.675-.333-7.975 3.346 7.964 3.37-8.673-.358z"/></g></g></svg>