<svg width="84" height="84" viewBox="0 0 84 84" xmlns="http://www.w3.org/2000/svg"><title>zh_TW</title><g fill="none" fill-rule="evenodd"><path fill="#D0011B" d="M0 0h84v84H0z"/><path fill="#3498DB" d="M0 0h62v62H0z"/><g transform="translate(-7 -7)"><path d="M45.297 37.91L37.9 65.65l-7.398-27.74L37.9 10.171m0 35.137l27.739-7.398-27.74-7.397L10.16 37.91" fill="#FFF"/><path d="M44.306 41.609L24.03 61.933l7.463-27.721L51.77 13.887m-17.568 30.43l27.722 7.463-20.325-20.276-27.721-7.463" fill="#FFF"/><path d="M41.598 44.317L13.877 51.78 34.2 31.504l27.722-7.463m-30.43 17.568L51.77 61.933l-7.463-27.721L24.03 13.887" fill="#FFF"/><circle fill="#4A90E2" cx="37.9" cy="37.91" r="15.719"/><circle fill="#FFF" cx="37.9" cy="37.91" r="13.87"/></g></g></svg>